<?xml version="1.0" encoding="utf-8"?>
<!-- Generator: Adobe Illustrator 26.1.0, SVG Export Plug-In . SVG Version: 6.00 Build 0)  -->
<svg version="1.1" xmlns="http://www.w3.org/2000/svg" xmlns:xlink="http://www.w3.org/1999/xlink" x="0px" y="0px"
	 viewBox="0 0 1600 1200" enable-background="new 0 0 1600 1200" xml:space="preserve">
<g id="right-top-back-horn">
	<g>
		<path fill="#95A5AA" d="M515,504.7c-8.6,0-17.5-2.7-25.7-7.8c-7.4-4.6-14.2-10.9-19.6-18.4c-21.3-29.7-21.4-68-19.5-108
			c0.1-2.1,1.5-3.9,3.6-4.6c0.5-0.1,1-0.2,1.4-0.2c1.6,0,3.1,0.7,4,2.1c10.1,13.8,21.7,25.7,34.5,35.3c9.2,6.9,17.7,11.7,25.2,15.9
			c13.7,7.7,25.5,14.3,32.7,29.7c2,4.3,8,17.2,3,30.5c-2.9,7.6-8.7,14-17.4,19.1c-5.2,3.1-11,5.1-16.7,5.9
			C518.7,504.6,516.9,504.7,515,504.7C515,504.7,515,504.7,515,504.7z"/>
		<path d="M455.2,370.8c13.1,17.9,26.1,29.3,35.5,36.4c26.5,19.9,46.3,22,56.4,43.7c2.1,4.6,7.1,15.5,2.9,26.6
			c-3.7,9.7-12.6,15.1-15.3,16.6c-4.5,2.7-9.6,4.5-14.8,5.2c-1.6,0.2-3.3,0.3-4.9,0.3c-16.2,0-31.6-10.7-41.2-24.1
			C452.6,446.2,453.5,407,455.2,370.8 M455.2,360.8c-1,0-1.9,0.1-2.9,0.4c-4.1,1.2-6.9,4.9-7.1,9.1c-1.9,40.9-1.8,80.1,20.4,111.1
			c12.7,17.7,31.2,28.3,49.3,28.3c2.1,0,4.2-0.1,6.2-0.4c6.5-0.9,12.7-3.1,18.6-6.5c9.7-5.7,16.3-13,19.6-21.7
			c5.8-15.3-0.9-29.7-3.2-34.4c-7.9-16.8-20.3-23.8-34.8-31.9c-7.4-4.1-15.7-8.8-24.7-15.5c-12.4-9.3-23.6-20.8-33.4-34.3
			C461.4,362.3,458.3,360.8,455.2,360.8L455.2,360.8z"/>
	</g>
	<g>
		<path fill="#E6D6B8" d="M463.3,386.7c-2.1-3.6-4.4-8-4.4-8c-1.4-2.6-2.6-5.1-3.7-7.3c0-0.2,0-0.4,0-0.6
			c13.1,17.9,26.1,29.3,35.5,36.4c18.6,14,34,19.2,44.9,28.6c-0.2,0.6-0.5,1.7-1.4,2.5c-7.8,6.7-40.9-20.6-48.5-26.9
			C485.7,411.4,470.3,398.7,463.3,386.7z"/>
	</g>
	<path fill="#E6D6B8" d="M455.2,370.8c2.4,18.2,8.3,44.9,24.4,72.9c7.6,13.2,15.8,23.9,23.4,32.5c0,2.8,0,5.5,0,8.3
		c-8.9-1.9-17.8-3.8-26.8-5.7c-2.9-3.7-6.7-9.1-10.2-16.2c-2.1-4.3-7.8-16.3-10.6-41.4C454,408.8,453.1,391.5,455.2,370.8z"/>
	<g opacity="0.41">
		<path fill="#FFFFFF" d="M455.2,370.8c-1.7,36.2-2.6,75.4,18.6,104.8c10.6,14.8,28.1,26.2,46.1,23.8c5.2-0.7,10.3-2.6,14.8-5.2
			c2.6-1.5,11.6-6.9,15.3-16.6c4.2-11.1-0.7-22.1-2.9-26.6c-10.1-21.7-29.9-23.8-56.4-43.7C481.3,400.1,468.3,388.7,455.2,370.8z"/>
	</g>
</g>
<g id="left-back-top-horn">
	<g>
		<path fill="#E6D6B8" d="M897.7,342.2c-16,0-28.2-5.2-33.5-14.1c-2.5-4.2-3.4-9.2-2.8-16.1c1.3-14.8,8.4-30,21.3-45.2l0.3-0.3
			c15.6-18.4,25.5-44.5,29.5-77.5c0.2-2,1.6-3.6,3.5-4.2c0.5-0.1,1-0.2,1.4-0.2c1.4,0,2.8,0.6,3.8,1.8
			c13.5,15.9,23.7,33.6,30.6,52.8c5.8,16.3,9,33.5,9.6,51.2c0,0.5,0,0.9-0.1,1.4c-5.9,23.4-23.9,42.3-46,48.3
			C909.9,341.5,903.8,342.2,897.7,342.2z"/>
		<path d="M917.6,189.6c9.6,11.3,21.5,28.3,29.7,51.3c6.7,19,8.9,36.3,9.3,49.6c-5.4,21.4-22.1,39.2-42.5,44.7
			c-5,1.3-10.7,2.1-16.3,2.1c-12.2,0-24.3-3.5-29.2-11.7c-1.4-2.4-2.7-5.9-2.1-13.1c1.8-21.3,17.1-38.8,20.5-42.7
			C899,255.5,912.5,231.6,917.6,189.6 M917.6,179.6c-1,0-1.9,0.1-2.9,0.4c-3.8,1.1-6.6,4.4-7,8.4c-3.8,32-13.4,57.2-28.3,74.9
			l-0.3,0.3c-13.6,16-21.2,32.1-22.5,48c-0.7,7.9,0.4,13.9,3.4,19c6.2,10.6,20,16.6,37.8,16.6c6.5,0,13-0.8,18.9-2.4
			c23.8-6.4,43.3-26.8,49.5-51.9c0.2-0.9,0.3-1.8,0.3-2.8c-0.6-18.2-3.9-35.9-9.9-52.7c-7-19.8-17.6-38.1-31.5-54.4
			C923.3,180.8,920.5,179.6,917.6,179.6L917.6,179.6z"/>
	</g>
	<path fill="#95A5AA" d="M916.8,190.3c9.3,11.3,22,29.8,29.7,51.3c6.7,19,8.9,36.3,9.3,49.6c-0.6,10.1-5.4,18-12.1,20.1
		c-3.9,1.2-7.4,0-9.5-0.7c-18.9-6.2-28.7-7.9-30.8-11.4c-5.6-9.8,11.1-22.4,18.6-44.3C926.6,241.4,928.9,220.6,916.8,190.3z"/>
	<path fill="#E6D6B8" d="M917.6,189.6c1-0.6,19.1,21.4,29.7,51.3c6.7,19,8.9,36.3,9.3,49.6c0.1,3.4-1.4,5.5-1.9,6.1
		c-0.1,0.1-0.1,0.1-0.2,0.1c-1.2,0.2-4.7-27.4-8.5-44.1C937.1,213.7,916.5,190.2,917.6,189.6z"/>
	<g opacity="0.41">
		<path fill="#FFFFFF" d="M917.6,189.6c9.6,11.3,21.5,28.3,29.7,51.3c6.7,19,8.9,36.3,9.3,49.6c-5.4,21.4-22.1,39.2-42.5,44.7
			c-15.8,4.3-38.4,2.4-45.5-9.6c-1.4-2.4-2.7-5.9-2.1-13.1c1.8-21.3,17.1-38.8,20.5-42.7C899,255.5,912.5,231.6,917.6,189.6z"/>
	</g>
</g>
<g id="left-top-front-horn">
	<g>
		<path fill="#95A5AA" d="M1096.8,498.8c-2.1,0-4.2-0.9-5.7-2.4c-3.7-3.7-8.4-7.1-15.2-10.9c-2.9-1.6-5.9-3-9.1-4.5
			c-4.5-2.1-9.1-4.3-13.5-7.1c-14.3-9.2-24.3-23.6-33.2-36.3c-6.3-9-10-20.6-10.3-31.7c-0.1-3.3,1.9-6.4,5-7.6
			c45-18.2,92.9-25.3,139.1-32.2c0.4-0.1,0.8-0.1,1.2-0.1c2.5,0,4.9,1.2,6.4,3.2c1.8,2.4,2.1,5.5,0.8,8.2l-39.7,85.1
			c-5.2,11.1-11,23.7-20,33.7c-1.5,1.6-3.6,2.6-5.8,2.7C1097,498.8,1096.9,498.8,1096.8,498.8z"/>
		<path d="M1155.2,374c-13.2,28.4-26.5,56.7-39.7,85.1c-5.2,11.2-10.6,22.7-18.7,31.8c-5-5-10.9-8.9-17-12.3
			c-7.3-4.1-15.2-6.9-22.2-11.4c-12.8-8.2-22-21.3-30.9-34.1c-5.3-7.6-8.6-17.8-8.8-27.4C1061.8,387.9,1108.8,380.9,1155.2,374
			 M1155.2,358c-0.8,0-1.6,0.1-2.4,0.2c-46.7,6.9-95.1,14.1-141,32.7c-6.2,2.5-10.2,8.6-10,15.2c0.3,12.7,4.6,25.8,11.7,36.1
			c9.3,13.3,19.7,28.4,35.4,38.5c4.9,3.1,9.7,5.4,14.4,7.6c3.1,1.4,5.9,2.8,8.6,4.3c6.1,3.4,10.3,6.4,13.4,9.6c3,3,7.1,4.7,11.4,4.7
			c0.1,0,0.3,0,0.4,0c4.4-0.1,8.6-2,11.5-5.3c9.8-10.9,15.9-24.1,21.3-35.7l39.7-85.1c2.5-5.3,1.8-11.6-1.7-16.3
			C1165,360.4,1160.2,358,1155.2,358L1155.2,358z"/>
	</g>
	<path fill="#E6D6B8" d="M1156.8,372.1c-18.8,8.7-33.4,16.7-43.5,22.5c0,0-2.6,1.5-26.5,15.7l0,0c0,0-21.9-16.6-26.5-20.3
		C1075.3,386.1,1090.6,382.8,1156.8,372.1z"/>
	<polyline fill="#E6D6B8" points="1156.1,373.1 1123.8,443.3 1116.4,435.2 	"/>
	<g opacity="0.34">
		<path fill="#698080" d="M1096.8,491c8.1-9.1,13.5-20.5,18.7-31.8c13.2-28.4,26.5-56.7,39.7-85.1c-46.5,6.9-93.4,13.9-137.3,31.7
			c0.2,9.5,3.5,19.7,8.8,27.4c8.9,12.8,18.1,25.9,30.9,34.1c7.1,4.5,14.9,7.3,22.2,11.4C1085.9,482.1,1091.9,485.9,1096.8,491z"/>
	</g>
</g>
<g id="right-horn-outlines">
	<g>
		<path d="M566.1,142.6c-19.9,61.9,2.2,131.3,35.2,179.4c33,48.1,82,88.9,82,88.9s33.1,30.3-9.4,71.1
			c-23.6,22.7-44.1,30.3-60.2,30.3c-12.9,0-22.9-4.9-29.5-10.9c-10.2-9.4-38-70.5-54.5-123.9C501.1,284,516.6,191,566.1,142.6
			 M566.2,127.6c-3.8,0-7.6,1.5-10.5,4.3c-26.8,26.2-44.7,63.8-51.9,108.9c-7.1,44.6-3,93.3,11.7,141.1
			c7.8,25.3,18.8,54.5,30.2,80.2c12.1,27.2,21.7,44.2,28.5,50.4c10.5,9.6,24.6,14.9,39.6,14.9c22.9,0,46.7-11.6,70.6-34.5
			c17.7-16.9,26.5-34.9,26.3-53.3c-0.3-23.6-15.4-38.1-17.2-39.7c-0.2-0.2-0.4-0.3-0.5-0.5c-0.5-0.4-47.9-40.1-79.3-85.9
			c-16.6-24.3-28.8-51.7-35.2-79.4c-7.2-31.3-6.6-60.6,1.9-86.9c2.1-6.6-0.5-13.7-6.4-17.3C571.6,128.3,568.9,127.6,566.2,127.6
			L566.2,127.6z"/>
	</g>
	<g>
		<path d="M767.6,924.5c7,0,14,1.1,20.6,3.5c13.1,4.8,26.9,16.8,30.5,30.8c3.7,14.6-6.9,26.5-14.7,37.8c-10.3,14.8-21,29.4-32,43.7
			c-5.7,7.3-11.5,14.5-17.3,21.7c-2.9,3.5-22.1,30.6-22.1,30.6s-12.8-89.2-11-133.7c0.3-8.1,0.9-17,6.7-22.6
			c2.5-2.5,5.8-4.1,9.1-5.4C746.8,926.9,757.3,924.5,767.6,924.5 M767.6,909.5c-11.8,0-24.3,2.6-36.1,7.5c-4.3,1.8-9.4,4.2-13.8,8.5
			c-10.3,10-10.9,24.2-11.3,32.7c-1.9,45.4,10.6,132.8,11.1,136.5c0.9,6.1,5.4,11,11.3,12.5c1.2,0.3,2.4,0.4,3.5,0.4
			c4.8,0,9.4-2.3,12.2-6.3c9.3-13,19.8-27.8,21.5-29.8c5.9-7.2,11.8-14.6,17.6-22c11.3-14.5,22.2-29.4,32.5-44.3
			c0.9-1.3,1.9-2.7,2.9-4.1c8-11.1,19-26.4,14-45.9c-5.2-20.3-23.8-35.3-39.9-41.2C785.3,911,776.6,909.5,767.6,909.5L767.6,909.5z"
			/>
	</g>
	<g>
		<path d="M393.7,407.2c14.4,44.8,35.7,63.7,52,72.7c41.7,23,86.4,1.4,107.3,30.3c11.6,16,7.4,36,7.2,37.5c-2.4,19-19.6,32-32.9,37
			c-5.4,2-11,3-16.6,3c-32.5,0-68.1-30.1-85.8-51.9C384.2,485.9,391.3,423.5,393.7,407.2 M393.7,395.2c-0.3,0-0.7,0-1,0
			c-5.6,0.5-10.1,4.7-10.9,10.2c-2.6,18.1-2.8,37.1-0.6,55c4.1,32,15.6,59.9,34.4,82.9c10.9,13.4,25.5,26.7,40,36.5
			c19.5,13.2,38,19.8,55.2,19.8c7.3,0,14.4-1.3,20.9-3.7c16.7-6.3,37.3-22.3,40.5-46.6l0-0.2c1.7-10.1,2.6-29.4-9.4-46.1
			c-14.6-20.1-37.2-21.4-59.1-22.5c-17.3-0.9-35.2-1.9-52.1-11.2c-20.4-11.2-36-33.4-46.4-65.8C403.5,398.5,398.9,395.2,393.7,395.2
			L393.7,395.2z"/>
	</g>
</g>
<g id="left-top-middle-horn">
	<g>
		<path fill="#E6D6B8" d="M1032.3,372.6c-1,0-2-0.2-2.9-0.7l-88.7-44.3c-1.8-0.9-3.1-2.6-3.5-4.5c-0.4-2,0.1-4,1.4-5.5
			c0.5-0.6,50.8-60.3,58.2-114.3c7.4-54-12.2-95.3-12.4-95.7c-1.3-2.8-0.6-6.1,1.8-8c1.2-0.9,2.6-1.4,4-1.4c1.5,0,3,0.5,4.2,1.5
			c2.1,1.8,51.8,44.2,64.1,113.4c12.2,68.7-18.8,151.7-20.2,155.2c-0.7,1.7-2,3.1-3.7,3.7C1033.9,372.4,1033.1,372.6,1032.3,372.6z"
			/>
		<path d="M990.2,104.7c0,0,49.9,41.9,61.9,109.6s-19.8,151.7-19.8,151.7l-88.7-44.3c0,0,51.9-61,59.7-117.6
			C1011.1,147.5,990.2,104.7,990.2,104.7 M990.2,91.7c-2.8,0-5.6,0.9-8,2.7c-4.8,3.8-6.4,10.4-3.7,15.9c0.2,0.4,19,40.3,11.9,92
			c-7.2,52.1-56.2,110.4-56.7,111c-2.6,3-3.6,7.1-2.8,11c0.8,3.9,3.4,7.2,6.9,9l88.7,44.3c1.8,0.9,3.8,1.4,5.8,1.4
			c1.6,0,3.2-0.3,4.7-0.9c3.4-1.3,6.1-4.1,7.4-7.5c1.4-3.6,33-88.2,20.5-158.6c-12.8-71.5-64.2-115.4-66.4-117.3
			C996.2,92.7,993.2,91.7,990.2,91.7L990.2,91.7z"/>
	</g>
	<path fill="#95A5AA" d="M1024.8,210.7c-1.9-39.2-17.6-75.2-33.7-105.7c4.6,4,50.1,45,61.5,109.3c12.1,67.7-19.8,151.7-19.8,151.7
		L977,340.6C998.9,303.4,1027.3,261.8,1024.8,210.7z"/>
	<path fill="#E6D6B8" d="M1029.8,351c0,0,10.5-37.6,14-56s6.4-48.5,3.9-75.5s-14.9-55-21.7-68.3c-6.8-13.3-21.9-33.3-34.4-44.9
		c-0.5-1.1-0.8-1.7-0.8-1.7s49.9,41.9,61.9,109.6c9.7,54.6-9.2,119.9-16.8,143L1029.8,351z"/>
</g>
<g id="right-bottom-back-horn">
	<g>
		<path fill="#95A5AA" d="M483.8,1016.3c-2.2,0-4.3-0.9-5.9-2.6c-2-2.2-2.7-5.3-1.6-8.1c9.2-25.5,18.9-46.8,27.5-65.6
			c3.5-7.7,6.8-15,9.8-21.8c23.2-53.9,34.6-72.8,56.2-78c3.7-0.9,7.6-1.3,11.6-1.3c16.7,0,31,7.7,35,10.1l0.2,0.1
			c19.9,11.8,26.7,25,28.9,34.1c2.9,11.9,0,32.6-30.1,63.6c-8.2,8.5-22.8,21.4-45.7,34.8c-24.4,14.3-52.5,25.8-83.7,34.4
			C485.2,1016.2,484.5,1016.3,483.8,1016.3z"/>
		<path d="M581.3,846.9c15.1,0,28.5,7.5,30.9,8.9c3.8,2.2,21.3,12.3,25.4,29.2c1,4.3,4.5,22.6-28,56.2c-18,18.6-57.4,48.3-125.8,67
			c12.9-35.8,27.1-63.7,37.1-86.9c23.1-53.6,33.3-69.2,50.7-73.4C574.8,847.2,578.1,846.9,581.3,846.9 M581.3,830.9L581.3,830.9
			c-4.6,0-9.1,0.5-13.4,1.6c-13.1,3.2-23.1,10.8-32.7,24.7c-7.8,11.4-15.9,27.7-29,57.9c-2.9,6.7-6.2,13.9-9.7,21.6
			c-8.6,18.9-18.4,40.3-27.8,66.2c-2,5.6-0.8,11.9,3.3,16.3c3.1,3.3,7.4,5.1,11.8,5.1c1.4,0,2.8-0.2,4.2-0.6
			c31.8-8.7,60.6-20.6,85.6-35.2c23.7-13.9,38.9-27.3,47.4-36.1c32.6-33.6,35.4-57.2,32.1-71.1c-4.6-19.2-20.3-31.9-32.6-39.1
			l-0.2-0.1C615.9,839.4,600,830.9,581.3,830.9L581.3,830.9z"/>
	</g>
	<path fill="#E6D6B8" d="M487.3,1008.2L487.3,1008.2L487.3,1008.2c12.3-33.7,23.9-62.2,33.5-84.3c0.2-0.4,1.5-3.3,3.2-7.3
		c2.9-6.8,5.2-12.4,6.7-15.9c2,4.3,16.8,16.6,16.8,16.6c-6.7,16.5-59.6,90.5-59.6,90.5S487.5,1008.1,487.3,1008.2
		c11.8-4.7,24.4-10.4,37.7-17.6c23.7-12.9,42.8-26.9,57.9-39.6c2.6,3.2,5.1,6.3,7.7,9.5c-20.6,14.7-47.3,29.9-80.2,41
		C502.5,1004.1,494.8,1006.4,487.3,1008.2C487.3,1008.2,487.3,1008.2,487.3,1008.2C487.3,1008.2,487.3,1008.2,487.3,1008.2
		C487.3,1008.2,487.3,1008.2,487.3,1008.2z"/>
	<path fill="#95A5AA" stroke="#000000" stroke-width="15" stroke-miterlimit="10" d="M579.3,963.4"/>
	<path fill="#E6D6B8" d="M478.5,1017.7"/>
	<g opacity="0.61">
		<path fill="#FFFFFF" d="M483.8,1008.3c12.9-35.8,27.1-63.7,37.1-86.9c23.1-53.6,33.3-69.2,50.7-73.4c18.7-4.5,37.6,6.1,40.6,7.8
			c3.8,2.2,21.3,12.3,25.4,29.2c1,4.3,4.5,22.6-28,56.2C591.5,959.8,552.1,989.6,483.8,1008.3z"/>
	</g>
</g>
<g id="left-bottom-front-horn">
	<g>
		<path fill="#95A5AA" d="M1242.3,897.4c-0.6,0-1.1-0.1-1.7-0.2l-101.2-21.4c-2.6-0.6-4.8-2.4-5.8-4.9c-1-2.5-0.7-5.3,0.8-7.5
			l50.3-73.3c1.5-2.2,4-3.5,6.6-3.5c0.1,0,0.3,0,0.4,0c2.8,0.2,5.3,1.7,6.6,4.2l50.9,94.8c1.5,2.7,1.2,6.1-0.6,8.6
			C1247.2,896.2,1244.8,897.4,1242.3,897.4z"/>
		<path d="M1191.4,794.6l50.9,94.8l-101.2-21.4L1191.4,794.6 M1191.4,778.6c-5.3,0-10.2,2.6-13.2,6.9l-50.3,73.3
			c-3,4.4-3.6,10-1.7,15c2,5,6.3,8.6,11.5,9.7L1239,905c1.1,0.2,2.2,0.3,3.3,0.3c5,0,9.7-2.3,12.8-6.4c3.7-5,4.2-11.7,1.3-17.2
			l-50.9-94.8c-2.6-4.9-7.7-8.1-13.2-8.4C1192,778.6,1191.7,778.6,1191.4,778.6L1191.4,778.6z"/>
	</g>
	<polyline fill="#E6D6B8" points="1182.8,809.4 1242.3,889.4 1194.5,800.4 1181.6,810.1 	"/>
	<g opacity="0.71">
		<polygon fill="#698080" points="1191.4,794.6 1242.3,889.4 1141.1,867.9 		"/>
	</g>
</g>
<g id="body">
	
		<radialGradient id="SVGID_1_" cx="953.5547" cy="367.3307" r="639.5521" gradientTransform="matrix(-1 0 0 1 1633.9563 0)" gradientUnits="userSpaceOnUse">
		<stop  offset="0.4672" style="stop-color:#C63B34"/>
		<stop  offset="0.5515" style="stop-color:#C13A34"/>
		<stop  offset="0.6509" style="stop-color:#B33733"/>
		<stop  offset="0.7578" style="stop-color:#9B3331"/>
		<stop  offset="0.87" style="stop-color:#7A2C2F"/>
		<stop  offset="0.9854" style="stop-color:#50242B"/>
		<stop  offset="1" style="stop-color:#4A232B"/>
	</radialGradient>
	<circle fill="url(#SVGID_1_)" stroke="#000000" stroke-width="20" stroke-miterlimit="10" cx="836.4" cy="679.3" r="378"/>
	<g id="Layer_23">
		<g opacity="0.37">
			<path fill="#D66C44" d="M553.9,710.3c2.3-5.2,4.7-10.4,7-15.7c0-1.1,0.1-2.2,0.1-3.4c0-2.9-0.2-5.9,1.7-8.3
				c2.1-2.8,5.8-4,8.8-5.4c3.4-1.7,7.9-4.8,11.6-5.6c3.2-0.7,6.4,1.6,9,3.1c1.6,1,3.2,2,4.8,3.1c1.9,1.1,3.8,2.4,5.1,4
				c2.5,2.1,4.9,4.3,7.2,6.5c2.9,2.8,5.8,5.6,8.7,8.5c2.3,2.2,5.2,4.4,6.5,7.3c1.5,3.4,0.6,7.4,0.3,11c-0.4,4.1-0.4,8.5-1.3,12.4
				c-0.5,2.2-1.6,3.7-3,4.8c0.2,2.5-1.4,5-4.8,5.2c-7.5,0.3-15-0.5-22.3-2.3c-1.3-0.3-2.2-1.1-2.8-2c-2.7-0.7-5.4-1.4-8.1-2.3
				c-1-0.3-1.8-0.8-2.3-1.4c-0.8,2.7-4.3,3.8-6.8,2.9c-4.8,6.4-14.2,0.4-19.3-2.8C545.9,724.9,550.9,717,553.9,710.3z"/>
			<path fill="#D66C44" d="M477.1,740.5c2.8-8.8,5.7-17.6,8.5-26.3c1.1-3.4,4.6-4.1,7.1-3c4.5,0.6,8.6,2.3,13,3.6
				c5.1,1.6,10.3,2.8,15.5,3.9c2.9,0.6,4.1,3.7,3.4,6.3c2.2,4,4.1,8.1,5.8,12.2c0,0.1,0,0.1,0.1,0.2c0,0,0,0,0,0
				c0.2,0.4,0.3,0.8,0.5,1.2c0.4,1,0.4,1.9,0.1,2.8c0,0.1,0.1,0.2,0.1,0.3c0.6,2.3,1.2,4.6,1.8,6.9c1.7,4,2.8,8.1,2.6,12.4
				c0.7,4.7,1,9.4,0.6,14.2c3.2,1.8,3.6,7.8-1,9.4c-4.9,1.6-9.8,3.3-14.7,4.9c-5.6,3.2-11.4,6.2-17.3,8.9c-2.7,1.2-5.7,0.4-6.9-2
				c-0.3-0.2-0.7-0.5-1-0.9c-2.5-3-4.7-6-6.8-9.2c-1.3-1.6-2.5-3.4-3.3-5.4c0,0,0,0,0,0c-3.4-5.9-6.1-12.1-8.2-18.7
				c-0.1-0.3-0.1-0.6-0.2-0.8C474.4,754.3,474.8,747.8,477.1,740.5z"/>
			<path fill="#D66C44" d="M524.8,844.4c2.5-10,15.2-10.3,21.5-16.4c1.2-1.2,2.8-1.6,4.3-1.4c0.6-0.6,1.4-1.1,2.6-1.3
				c6.7-1.2,10.3,3.6,14.5,8.1c5.3,5.7,10.7,11.4,16,17.1c2.2,2.4,1.8,6.2-1,7.9c-5.5,3.3-11.8,4.4-17.6,7
				c-6.1,2.6-11.8,6.2-17,10.4c-4,3.3-9.1,0.1-8.4-4.9C541.4,859.9,522,855.8,524.8,844.4z"/>
			<path fill="#D66C44" d="M600.4,847.5c4.1,2.7,9.5,1.6,13.9,4c4.7,2.6,10.3,5.8,15.7,3.3c5.7-2.6,6.5-11.7,8.1-17
				c1.7-5.5,6.3-14.3,3.6-19.9c-2.5-5.2-10.9-9.1-15.7-11.6c-6.3-3.2-12.9-5.6-19.8-7.2c-4.1-0.9-6.6,2.8-6.2,5.9
				c-0.3,0.5-0.4,1.2-0.5,1.9c-0.7,8.3-1.4,16.6-2.2,24.8C597,837,595.1,844,600.4,847.5z M631,826.8c-0.2,0.7-0.4,1.3-0.6,2
				c0.6-2.3,1.2-4.7,1.3-7.1c0.2,0.2,0.3,0.4,0.4,0.5c0,0.2,0,0.4,0,0.9C632.2,824.1,631.3,825.8,631,826.8z"/>
			<path fill="#D66C44" d="M777.9,811.9c3.1-8.3,6.3-16.6,9.4-24.8c1.2-3.3,4.2-4.3,7.3-3c7.8,3.4,14,9.5,17.5,17.2
				c0.3,0.6,0.4,1.2,0.5,1.8c1.5,1,2.5,2.8,1.9,5.2l-7.6,29.9c-1.1,4.4-6.9,4.7-9.1,1.2c-2.5-3.9-5.2-7.5-8.3-11
				c-2.8-3.1-7.1-6-9.1-9.7c-0.2-0.5-0.4-0.9-0.6-1.4C778,816.3,776.9,814.4,777.9,811.9z"/>
			<path fill="#D66C44" d="M665.8,738.3c3.4-11.9,7.4-23.6,11.7-35.2c0-1.3-0.1-2.6-0.1-4c-0.1-2,0.7-3.3,2-4.1
				c1.5-1.7,3.9-2.6,6-1.2c1.3-0.1,2.6,0.3,3.7,1.4c12.7,12.4,26,24.3,39.9,35.5c1.3,1.1,1.8,2.3,1.7,3.5c1.2,1.3,2.2,2.6,3.2,4
				c1.5,2.2,0.4,5.6-1.8,6.8c-3.7,2-7.8,2.9-11.8,4.2c-4.2,1.5-8.3,3.4-12.1,5.7c-7.7,4.6-14.5,10.6-19.9,17.8
				c-2.8,3.7-9.4,2.9-9.3-2.5c0.1-6-2-11.2-5.2-16.2c-2.1-3.2-5.8-6.6-6-10.5C666.2,742.6,665.1,740.7,665.8,738.3z"/>
			<path fill="#D66C44" d="M582.7,595.3c9,8.1,17.1,16.9,24.3,26.6c1.8,2.5,5.4,3.5,7.9,1c4.8-5,10-9.4,15.9-13
				c4.3-2.6,13-4.8,13-11c0-2.9-2.7-5.4-4.4-7.5c-2.5-3.1-5-6.2-7.4-9.3L617,563.4c-2.1-2.6-5-1.9-6.7,0c-1.8-2.3-5.2-3.1-7.5-0.7
				c-7.9,8.1-14.8,16.9-20.8,26.5C580.8,591,581.1,593.9,582.7,595.3z M630,595.1c0.7,0.9,1.5,1.8,2.1,2.8c-0.6,0.3-1.1,0.6-1.7,1
				c0.1-0.6,0.1-1.3,0-2.1C630.3,596.2,630.1,595.6,630,595.1z M620.8,604.6c0.7-0.7,1.3-1.4,1.9-2.1c0.2,0.1,0.5,0.3,0.7,0.3
				C622.6,603.3,621.7,603.9,620.8,604.6z"/>
			<path fill="#D66C44" d="M649.1,639.8c3.6-4.5,8-9.2,11.1-14.4c1.9,0.9,3.8,1.8,5.7,2.9c0.1,0.6,0.2,1.2,0.2,1.8
				c0.5,4.3,1.1,8.6,1.8,12.9c1,6.7,4,15.5,2.4,22.2c-0.2,0.9-0.2,1.7,0,2.4c-0.2,0.3-0.4,0.5-0.6,0.8c-2.5,3.1-4.6,6.6-6.8,9.9
				c-2.8,4.4-5.5,10.1-8.8,14.9c-3.1,0.3-6.2,0.5-9.3,0.7c-2.3-7.8-5.9-15.2-8.6-23c-1.3-3.6-2.1-7.5-3.2-11.1
				C638.5,653.4,643.7,646.6,649.1,639.8z"/>
			<path fill="#D66C44" d="M682.2,907.5c2.7,2.2,5.3,4.4,8.1,6.4c2.2-9.7,5.4-19.1,9.9-28c2.3-4.5,4.9-8.7,7.5-12.9
				c1.9-3,3.3-6.7,0.9-9.9c-2.8-3.7-9-5.8-13-7.9c-4.9-2.7-9.8-5.4-14.7-8.1c-0.7-0.4-1.4-0.8-2.1-1.2c-0.2,3.6-0.5,7.2-0.9,10.8
				c0.1,9.2,0.6,18.4,1.2,27.6C679.8,892.1,681.6,899.8,682.2,907.5z M687,891c0-0.2-0.1-0.4-0.1-0.5c0.3-0.4,0.6-0.9,0.9-1.3
				C687.5,889.7,687.2,890.4,687,891z"/>
			<path fill="#D66C44" d="M595.6,965c-0.4,0.2-0.8,0.4-1.1,0.7c-0.4,0.1-0.7,0.2-1.1,0.3c-1.3-1.9-2.8-3.7-4.3-5.4
				c4.9-6.8,7.8-15,12.7-21.8c4.7-6.5,9.6-12.7,13.5-19.7c0.4,0.3,0.7,0.5,1.1,0.8c5.5,4.4,10.6,9.4,15.5,14.5
				c4.2,4.3,8.3,8.8,12.2,13.3C627.9,953.4,611.2,957.8,595.6,965z"/>
			<path fill="#D66C44" d="M830.6,863.4c4.4-5.9,9.1-11.6,13.6-17.4c0.7-0.9,1.7-1.4,2.8-1.5c2.2-1.7,5.5-1.9,7,1.4
				c4.3,9.7,8.6,19.4,13,29.1c1.3,2.8,0.4,6.5-3,7.3c-3.7,0.9-7.3,1.7-11,2.4c-2.9,0.5-6.4,1.5-9.3,0.8c-2.5-0.6-3.8-2.1-5.1-4.2
				c-1.7-2.7-3.4-4.6-5.9-6.5C828.2,871.7,827.2,867.8,830.6,863.4z"/>
			<path fill="#D66C44" d="M815.1,944.5c5.8,3.7,11.5,7.5,17.4,11c4.5,2.7,9,2.6,11.9-2.2c3.3-5.5,5.7-11.9,7.7-17.9
				c1.8-5.3,1.2-8.8-2.7-12.8c-4.1-4.4-8.7-8.4-13.5-12.1c-4.5-3.4-8.9-6.4-14.7-4.9c-1.6,0.4-2.6,1.4-3.2,2.5
				c-1.2,0.5-2.3,1.6-2.8,3.1c-0.9,2.8-1.8,5.6-2.7,8.4c-0.3,0.4-0.5,0.9-0.6,1.5c-0.1,0.4-0.2,0.9-0.2,1.3c-1,3.2-2,6.4-2.9,9.6
				C806.9,938.7,809.6,941,815.1,944.5z M834.2,944.8c0.1-0.1,0.3-0.1,0.4-0.2c0.9,0.5,1.9,0.8,2.9,0.8c-0.2,0.4-0.4,0.9-0.7,1.3
				C835.9,946.2,834.9,945.4,834.2,944.8z M837.8,925c0.5,0.4,0.9,0.8,1.4,1.3c-0.1,0-0.2,0.1-0.3,0.2
				C838.5,925.9,838.2,925.4,837.8,925z"/>
			<path fill="#D66C44" d="M899,954.8c0.5,5.7,8.8,9.9,12.8,13.1c4.3,3.5,10.2,10.7,16.4,7.5c2.9-1.5,5.3-4.9,7.5-7.3
				c2.5-2.8,4.9-5.6,7.3-8.4c4-4.8,8.7-10.1,9.1-16.6c0.4-6.9-4.5-11.6-8.8-16.4c-5.2-5.9-10.4-11.9-15.7-17.8
				c-1.9-2.2-4.4-1.9-6.1-0.6c-2.4-2.1-7.1-1.9-8.5,2.1c-2.7,8.1-5.4,16.2-8.1,24.3c-1.2,3.7-2.5,7.5-3.7,11.2
				C900.4,948.8,898.8,951.8,899,954.8z M942.2,943c-0.1-0.3-0.2-0.5-0.3-0.8c0.1-0.3,0.1-0.6,0.2-1c0,0,0,0.1,0,0.1
				C942.2,941.9,942.2,942.4,942.2,943z"/>
			<path fill="#D66C44" d="M878.1,1016.2c5-8.1,10.4-16.2,14.9-24.6c0.2-0.3,0.4-0.6,0.6-0.9c1.2,0.5,2.3,1.2,3.3,2.1
				c4.4,7.9,10.2,14.8,14.9,22.6c-3,3.2-6.2,6.3-9.5,9.4c-6.1,5.7-12.5,11.9-19.5,16.7c-0.3-0.4-0.6-0.8-0.8-1.3
				c-1.4-0.5-2.6-1.6-3.2-3.3c-0.8-2.3-1.9-4.4-3.3-6.4c-0.6-0.9-0.8-1.8-0.8-2.7c-0.2-0.4-0.3-0.7-0.4-1.1
				C873.3,1022.7,876.2,1019.2,878.1,1016.2z"/>
			<path fill="#D66C44" d="M892.4,878.7c0,0.7,0,1.5,0.2,2.3c0,0.1,0.1,0.2,0.1,0.3c0.3,1.9,0.8,3.8,1.2,5.8c0.3,1.5,1.1,2.5,2,3.1
				c0,0.2,0.1,0.4,0.1,0.7c0.5,3.8,3.8,6.1,7.5,4.3c4.6-2.2,9.1-4.4,13.7-6.7c2.9-1.4,5.5-2.9,6.4-6.3c0.9-3.5-0.4-7.7-1.1-11.1
				c-1-5-2.2-10-3.6-14.9c-0.4-1.5-1.3-2.5-2.4-3c-1.9-2.2-6-2.7-8.4,0.4c-4.6,6-9.6,11.9-13.9,18.2
				C892.7,874,892.3,876.4,892.4,878.7z M905.8,882.9c-0.4,0.2-0.9,0.4-1.3,0.7c-0.1-0.2-0.1-0.4-0.2-0.5
				C904.8,883.1,905.3,883,905.8,882.9z"/>
			<path fill="#D66C44" d="M826.5,997.8c4.5-4.6,7.7-9.2,10.9-14.7c3-5.1,6.4-9.7,11.6-12.7c0.4-0.3,0.9-0.4,1.4-0.5
				c0.2,0.4,0.3,0.8,0.5,1.1c0.4,7.5,1.6,15,2.2,22.5c0.3,3.8,0.9,7.4,1.8,11.2c0.4,2,1.3,4.6,1.3,6.9c-1.8,1.7-3.6,3.3-5.3,4.9
				c-4.7,4.4-9.3,8.8-14,13.3c-1.8,1.7-5.3,2.1-7.1,0c-2.3-2.8-4.6-5.7-6.7-8.6c-1.9-2.6-4.5-5.5-5-8.7
				C817.2,1006.7,822.9,1001.5,826.5,997.8z"/>
			<path fill="#D66C44" d="M555.2,924c0,3.1,3.2,5.8,6.3,4.8c5.5-1.8,11-3.6,16.5-5.5c4-1.3,8.4-2.5,11.4-5.7
				c3-3.1,3.9-7.7,5.3-11.6c1.8-5.2,4-10.2,6.5-15.1c1.3-2.5,0.4-4.8-1.3-6.2c-0.7-3-4.6-5.3-7.5-3.5c-9.8,6.1-20.1,10.8-30.3,16.2
				C552.5,902.4,555.1,915,555.2,924z M566.1,916.8l-1.1,0.3c0-0.4,0-0.8,0-1.2C565.4,916.2,565.7,916.5,566.1,916.8z"/>
			<path fill="#D66C44" d="M624.5,998.2c4.3-7.4,11.5-13.3,17.3-19.5c3.6-3.8,7.2-7.6,10.8-11.5c2.4-2.6,4.9-6,8.5-7.1
				c3.2-1,5.4-0.1,6.7,1.6c1.2,0.5,2.2,1.5,2.4,3.3c1,6.5,1.7,12.9,2,19.5c0.2,4.9,1.3,11.4-4.4,13.4c-5.3,1.9-11.9,2.1-17.5,3.2
				c-6.8,1.4-13.5,2.9-20.3,4.5C626,1006.5,622.3,1002.1,624.5,998.2z"/>
			<path fill="#D66C44" d="M515.1,76.6c6.4,0,6.4,10,0,10C508.7,86.6,508.7,76.6,515.1,76.6z"/>
			<path fill="#D66C44" d="M987.8,919.9c0,0,0.1-0.1,0.1-0.1c6.4,7.1,11.9,14.9,19.5,20.8c-3.8,5-8.4,9.4-12.5,14.2
				c-3.9,4.7-7,10.3-11.1,14.9c-3.6-10.1-6.5-20.5-9-31C978.6,932.1,983,925.8,987.8,919.9z"/>
			<path fill="#D66C44" d="M969,1009.6c6-9.4,12.3-18.6,18.9-27.7c1-1.4,2.4-2.1,3.9-2.3c2.2-1.2,5.1-1.1,6.9,1.6
				c2.5,3.9,6.5,8.3,7.9,12.8c1.2,3.7-1.1,7.7-3.7,10.3c-3,3-6.9,4.7-10.9,6c-5.6,1.8-10.9,3.6-16.2,6.1
				C971.6,1018.4,966.1,1014.1,969,1009.6z"/>
			<path fill="#D66C44" d="M931.3,990.7c6.9-10.8,14.5-21.2,22.6-31.1c2.2-2.7,7.8-1.4,8.4,2.2c0.1,1,0.2,2,0.3,3
				c0.8,0.8,1.3,1.9,1.3,3.4c-0.1,7.9,6.8,15.4,2.6,23c-4.3,7.9-10.9,15.1-16.2,22.3c-2,2.8-6.8,3.7-8.6,0
				c-3-6.2-6.5-12.1-10.4-17.8C930.4,994.4,930.4,992.1,931.3,990.7z"/>
			<path fill="#D66C44" d="M1009.7,960.5c6.7-9.7,12.8-19.8,18.3-30.3c1-1.8,2.5-2.5,4-2.5c1-0.5,2.2-0.6,3.3-0.2
				c7.9,2.8,10.5,10.1,16.5,15.2c1.6,1.4,1.9,4.3,0.8,6.1c-7,11-14,22.1-21,33.1c-2.2,3.4-6.4,3-8.6,0c-4-5.2-8.2-10.3-12.5-15.3
				C1009.1,965,1008.4,962.4,1009.7,960.5z"/>
			<path fill="#D66C44" d="M1042.6,898.2c0.8-1.1,2-1.9,3.4-2.3c1.4-1.6,3.7-2.5,6.2-1.3c9.7,5,18.3,11.8,26.5,18.9
				c3.1,2.7,7,5.2,5.5,9.9c-1.8,5.5-5.9,10.9-8.7,16c-1.9,3.5-6.6,3-8.6,0c-5.6-8.2-12.6-15.4-20.7-21.1c-2.9-2-7.3-3.6-8.7-7.1
				C1035.7,906.9,1040.1,901.6,1042.6,898.2z"/>
			<path fill="#D66C44" d="M1080,882c0.6,4.1,4,7.7,6.5,10.8c2.8,3.4,5.9,6.4,9.2,9.2c2.6,2.2,7.6,1.8,8.4-2.2
				c0.8-4.2,1.8-8.4,3.3-12.4c1.2-3.2,3.5-6.5,2.7-10.1c-0.7-3.6-3.9-7.6-5.7-10.8c-2.2-3.8-4.5-7.6-6.7-11.4
				c-0.3-0.5-0.8-1-1.2-1.3c-2.4-2.8-7.6-2.9-8.6,1.7c-1.1,4.9-2.4,9.6-4.2,14.3C1082.1,873.5,1079.3,877.6,1080,882z M1096.3,889.2
				c-0.2-0.2-0.4-0.4-0.6-0.6c0.3,0,0.6,0,0.8-0.1C1096.4,888.7,1096.3,888.9,1096.3,889.2z"/>
			<path fill="#D66C44" d="M1095.7,806.2c6.6-1,13.2-1.7,19.8-2.6c1.9,0.4,3.8,0.8,5.8,1c2.7,0.3,5,2.1,5,5
				c0.2,11.4,0.3,22.8,0.5,34.2c-9.4-3.9-18.3-8.7-27.7-12.6c-3.1-1.3-6.3-2.4-9.4-3.7c-1.7-1.1-3.4-2.1-5.2-3
				c-0.9-2.6-0.8-5.4-0.8-8.4c0-3.2-0.1-6.4-0.1-9.5C1087.7,806.3,1092.3,806.7,1095.7,806.2z"/>
			<path fill="#D66C44" d="M1109.9,776.3c5.9-14.3,12.7-28.2,20.6-41.5c1.9-3.2,6.8-3.3,8.6,0c1.8,3.3,3.9,6.4,6.3,9.2
				c0.8,0.2,1.7,0.7,2.4,1.5c5.6,6.3,11.4,12.5,17.3,18.6c2.4,2.5,1.6,5.9-1,7.9c-4.1,3.1-8.2,6.1-12.3,9.2c-3.1,2.3-6.1,5.1-9.9,6
				c-4.2,0.9-8.8-0.7-12.8-1.5c-5.2-1-10.4-2.1-15.7-3.1C1110.9,781.9,1108.9,778.7,1109.9,776.3z"/>
			<path fill="#D66C44" d="M1067.4,738.6c-4.8-1.6-9.9-2.7-14.6-4.1c-2.8-0.8-5.2,0.8-6.2,3.3c-5.2,12.2-9.8,24.6-13.7,37.3
				c-1.3,4.3,3.2,7.6,7.1,5.9c9.9-4.4,20.2-7.5,30.9-9.5L1067.4,738.6z"/>
			<path fill="#D66C44" d="M1141,706.4c7,3,14.2,7.1,21.5,9.2c6.7,1.9,10.8-4.3,14.8-8.7c2.5-2.8,6.1-5.9,7.4-9.5
				c0.9-1.4,1.1-3.1,0.1-5c0,0,0,0,0,0c-0.2-0.6-0.5-1.2-0.9-1.8c-0.3-0.5-0.6-0.9-0.9-1.3c-5-8.2-11.7-16.1-18.2-22.9
				c-2.2-2.3-6.3-1.8-7.9,1c-1.5,2.7-2.9,5.4-4.2,8.1c-5,7.7-9.5,15.7-13.4,24C1138.2,701.7,1138.4,705.2,1141,706.4z M1150.3,699.6
				c0.2-0.3,0.3-0.6,0.5-1c0.2,0.5,0.4,1,0.6,1.4L1150.3,699.6z"/>
			<path fill="#D66C44" d="M1049.3,696.9c0.8-6,5.3-7.6,10.4-9.8c12-5.1,24.1-10.1,36.2-15c3.9-1.6,8.2,4,5.6,7.3
				c-0.2,0.2-0.4,0.5-0.5,0.7c0.2,1,0.1,2.2-0.5,3.4c-2.7,5.2-5.5,10.4-8.2,15.6c-2.2,4.1-4.1,10.3-7.7,13.3
				c-3.2,2.7-8.3,2.7-12.2,3.5c-5.8,1.1-11.7,2.3-17.5,3.4c-3,0.6-6.5-1.4-6.3-4.8C1048.7,708.8,1048.5,702.7,1049.3,696.9z"/>
			<path fill="#D66C44" d="M1090,640.9c2.9-8,5.2-16.1,7-24.3c0.1-0.6,0.4-1.1,0.7-1.5c0-3.2,4.5-6.2,7.8-3.3
				c4.9,4.3,9.7,8.5,14.6,12.8c3.3,2.9,8.8,6.1,6.8,11.2c-1.6,4.3-6.5,8.1-9.6,11.3c-4.2,4.3-8.4,8.5-12.6,12.8
				c-2.2,2.2-5.3,1.3-7-0.9c-2.5-3.3-5.8-6.7-7.8-10.3C1088.4,645.8,1089,643.5,1090,640.9z"/>
			<path fill="#D66C44" d="M1115.9,585.4c0.8-3,3.1-5.8,4.6-8.5l6.6-11.3c1.2-2,3.9-2.9,6.1-2.2c1.5-0.5,3.3-0.2,4.8,1.2
				c4.2,3.9,13.9,13.1,12.2,19.7c-0.8,3.3-4.7,6.3-6.8,8.7c-3.3,3.8-6.7,7.5-10,11.3c-2.3,2.6-6.1,1.4-7.9-1c-2.3-3.3-4.7-6.6-7-10
				C1116.7,590.9,1115,588.6,1115.9,585.4z"/>
			<path fill="#D66C44" d="M1153,632.5c5.8-11.2,12.3-22,19.3-32.4c1.2-1.8,2.8-2.5,4.4-2.4c2.5-1.7,6.7-1.2,7.8,2.6
				c2.5,8.2,4.8,16.5,7.5,24.7c1.1,3.3-1.7,6.1-4.8,6.3c-9.7,0.7-18.9,3.4-27.4,8C1155.3,641.8,1150.6,637,1153,632.5z"/>
			<path fill="#D66C44" d="M1054.9,568.9c5.7-12.5,12.8-24.6,20-36.3c1.7-2.7,4.6-2.8,6.8-1.6c2.4-0.6,4.9,0.4,5.6,3.4
				c2.8,13.7,5.3,27.4,7.5,41.2c0.9,5.4,1.7,9.8-3.5,13c-3.7,2.3-11.1,6.9-15.4,4.8c-2.5-1.2-4.9-3.8-7.1-5.5l-9.1-7.1
				C1055.2,577.4,1052.4,574.5,1054.9,568.9z"/>
			<path fill="#D66C44" d="M1099.9,543.7c-0.1,4.2,4.2,5.7,7.5,4.3c6-2.6,11.9-5.5,17.6-8.8c3.9-2.2,9-4.6,7.7-10
				c-1.2-4.8-6.4-9.7-9.4-13.5c-3.9-4.8-7.8-9.4-10.4-15c-2.1-4.6-7.9-2.4-9,1.5c-1.4,0.9-2.4,2.4-2.6,4.1
				C1100.7,518.8,1100.2,531.2,1099.9,543.7z M1121.2,529.3c0.1,0.2,0.3,0.4,0.4,0.6c-0.3,0.2-0.7,0.4-1,0.6
				C1120.9,530.2,1121.1,529.8,1121.2,529.3z"/>
			<path fill="#D66C44" d="M1040.2,482.2c0.7,3.4,4.3,6.3,6.1,9.2c1.9,3,3.5,6.1,5.1,9.2c3.6,7,7.4,13.9,13.2,19.4
				c2.8,2.6,7.3,1.5,8.4-2.2c2.6-8.9,2.5-18.1,2.6-27.3c0.1-9.9,0.1-19.8,0-29.7c0-2.2-1.2-3.7-2.8-4.4c-0.4-1.7-1.5-3.2-3.4-3.4
				c-7-1.1-17.8-4.1-21.6,3.7c-1.8,3.8-2.8,8.1-4.2,12.1C1042.3,472.7,1039.4,477.9,1040.2,482.2z M1065.1,504.8
				c-0.5-0.8-1-1.6-1.4-2.4c0.5,0.1,1.1,0.1,1.6,0C1065.3,503.2,1065.2,504,1065.1,504.8z"/>
			<path fill="#D66C44" d="M983.3,465.3c0.2,0.5,0.6,1,1,1.5c2.3,2.7,6.6,4.4,9.6,6.2c4.3,2.6,8.7,5.3,13,7.9
				c2.3,1.4,5.5,0.5,6.8-1.8c5.1-8.6,10.6-16.9,16.6-24.9c1.7-2.2,1-4.4-0.6-5.8c0.4-1.5,0.1-3.1-1.4-4.5c-6-5.3-12-10.6-18-16
				c-0.6-1.3-1.8-2.3-3.2-2.8c-1.5-2.6-5.1-4-7.5-1c-8.2,9.9-13.6,22.5-19.8,33.7C977.8,461.3,980.3,464.6,983.3,465.3z M1005,443.4
				c0.1,0.3,0.2,0.5,0.3,0.8c-0.3,0.2-0.7,0.4-0.9,0.7c0-0.1,0.1-0.3,0.1-0.4L1005,443.4z M1007.7,469.7l-0.8-0.5
				c0.4,0,0.8,0,1.1-0.1C1007.9,469.3,1007.8,469.5,1007.7,469.7z"/>
			<path fill="#D66C44" d="M953,490.6c0.7-2.8,1.7-5.5,3-7.9c0-1.2,0.4-2.4,1.5-3.4c0.5-0.5,1.1-1,1.6-1.5c1.3-1.7,2.7-3.3,4.4-4.8
				c0.7-0.7,1.5-1.1,2.3-1.2c3.9-2.9,8.1-4.2,12.6-0.6c7.9,6.5,14.8,14.5,22.1,21.7c2.5,2.5,1.5,5.7-0.6,7.4
				c0.1,3.1-2.3,6.3-6.2,5.2c-12.3-3.6-24.7-6.5-37.2-8.7C953.8,496.3,952.4,493,953,490.6z"/>
			<path fill="#D66C44" d="M1013.9,521.6c1.4-2.7,4-5.1,5.9-7.6c2.7-3.3,5.4-6.6,8.1-9.9c0.9-1.1,2.2-1.5,3.5-1.5
				c2.2-2.5,7.4-2.5,9,1.7c1.5,3.8,2.9,7.6,4.4,11.4c1.3,3.3,2.2,5.9,0.1,9c-4.4,6.4-11.1,11.9-16.4,17.5c-2.8,3-7.1,1.1-8.4-2.2
				c-1.5-3.7-3.4-6.9-5.5-10.4C1013.2,527,1012.4,524.5,1013.9,521.6z"/>
			<path fill="#D66C44" d="M952.8,388.9c0,13.4,0.9,26.7,2.7,40c0.8,5.7,7.7,6.7,9.8,1.3l3.9-9.6c3-3.6,5.9-7.3,8.6-11.1
				c3.1-4.3,7.2-9,8-14.4c0.4-2.7-1.1-4.8-3.1-5.7c-0.8-1-2-1.6-3.6-1.7c-6.3-0.2-11.6-6-18.1-5.7c-1.7,0.1-3.1,0.9-4.1,2.1
				C954.8,384.5,952.8,386.1,952.8,388.9z M974.5,396.9c-0.2,0.3-0.4,0.7-0.6,1c-0.1-0.4-0.2-0.9-0.3-1.3
				C973.9,396.7,974.2,396.8,974.5,396.9z"/>
			<path fill="#D66C44" d="M1009,394.3c5.5,3.8,12.2,5.8,17.8,9.5c4.2,2.8,7.9,6.1,11.8,9.2c1.4,1.1,2.8,2.1,4.3,3.2
				c-4.3,1.3-8.7,2.6-13,4.1c-3.8,1.3-8,3.6-12,3.7c-1.6,0.1-3.6-1-4.3-2.5c-2.7-6.2-2.6-14.7-3.5-21.4c-0.1-0.5-0.1-0.9,0-1.4
				C1008.6,397.6,1008.4,395.9,1009,394.3z"/>
			<path fill="#D66C44" d="M882.9,420.1c2.9,4.6,6.3,8.9,9.4,13.4c1.9,2.7,5.4,3.4,7.9,1c5.2-5,10.4-9.9,15.6-14.9
				c3.5-3.4,9.5-7.2,10.4-12.4c0.9-5.1-2.8-11-5.5-15.1c-3.2-4.9-7.2-9.4-11.1-13.8c-1.7-1.9-3.8-1.9-5.5-1
				c-1.9-0.5-3.9,0.1-5.1,2.3c-5.3,9.9-10.6,19.9-15.9,29.8C881,413.6,880.4,416.2,882.9,420.1z M910.1,411.3
				c-0.7,0.6-1.3,1.3-2,1.9c0,0,0-0.1,0-0.1c0.2-0.1,0.4-0.3,0.5-0.4c0.9-0.8,1.6-1.8,2.1-2.9c0.3,0.2,0.5,0.3,0.8,0.4
				C910.9,410.5,910.4,410.9,910.1,411.3z"/>
			<path fill="#D66C44" d="M892.6,472.3c5.8-0.2,11.5-0.5,17.2-0.9c4.6-0.3,9.9-0.2,14.3-1.7c3.9-1.4,7-5.2,9.9-7.9
				c4-3.7,7.9-7.3,11.9-11c1.6-1.5,1.9-4.3,0.8-6.1c-3.4-5.5-5.9-11.1-7.6-17.4c-0.7-2.8-3.1-3.8-5.3-3.5c-1.7-0.9-3.9-1-5.8,0.7
				c-3.6,3.1-7.2,6.1-11.2,8.7c-3.4,2.2-6.6,4.3-9.2,7.4c-6.4,7.5-12.4,15.4-18.6,23.1C886.5,466.9,887.8,472.4,892.6,472.3z
				 M920.6,460.1C920.6,460,920.6,460,920.6,460.1c1.8-1,3.4-2.6,4.1-4.6c0.2-0.1,0.4-0.3,0.5-0.4c0.4,0.1,0.9,0.1,1.3,0.2
				C924.8,457.1,922.8,459,920.6,460.1z"/>
			<path fill="#D66C44" d="M825,410.4c3.8,3.7,7.4,7.6,10.7,11.8c2,2.5,6.5,1.6,7.9-1c2.9-5.5,6.2-10.7,10.1-15.4
				c2.9-3.4,7.7-6.6,9.5-10.8c2.2-4.9-0.8-9-4.3-12.2c-5-4.6-10.2-9.1-15.2-13.7c-1.2-1.1-2.6-1.4-3.8-1.3c-2.1-0.8-4.7-0.5-6.2,1.9
				c-5.9,8.8-10.5,18.7-12.7,29.1C819.8,404,821.3,406.8,825,410.4z M852.8,392.1c-0.5,0.5-1,1-1.5,1.5c0.2-0.3,0.4-0.6,0.6-1
				c0.3-0.7,0.5-1.4,0.6-2.1c0.4,0.3,0.8,0.7,1.1,0.8C853.4,391.6,853.1,391.9,852.8,392.1z"/>
			<path fill="#D66C44" d="M844.8,461.6c2.1-8.7,5.6-16.9,10-24.7c2-3.5,6.5-2.9,8.6,0c2.5,3.3,4.3,6.8,5.6,10.5
				c1.2,2.3,2.4,4.7,3.7,7c1.7,3.2,4.4,6.8,3.4,10.7c-0.9,3.1-3.9,5.8-6,8.1c-2.9,3.2-6.1,6.1-9.3,8.9c-2,1.7-5.1,2.1-7.1,0
				c-2.9-3.2-6.7-6.4-9-10.1C842.7,468.9,844,465,844.8,461.6z"/>
			<path fill="#D66C44" d="M864.2,349.8c9.9,0.5,19.7,2.2,29.1,5.2c3.9,1.2,4.2,5.5,2.4,8.1c-0.1,0.7-0.3,1.4-0.9,2.2
				c-0.3,0.3-0.5,0.7-0.8,1c0,0,0,0,0,0c-0.1,0.1-0.1,0.1-0.2,0.2c-4.1,5.2-8.9,9.5-14.8,12.8c-0.8,0.5-1.7,0.7-2.5,0.7
				c-1.3,1.1-2.6,2.1-4,3c-3.3,2-7.4-0.6-7.5-4.3c-0.3-7.4-3.7-15.3-5.7-22.4C858.6,353.1,861,349.6,864.2,349.8z"/>
			<path fill="#D66C44" d="M741.1,380.5c-0.1,3.8,3.6,6.6,5.5,9.5c2.6,3.8,4.4,7.8,5.7,12.2c0.9,3,4.6,4.8,7.3,3
				c3.6-2.3,7.3-4.2,11.1-6.2c1.7-0.9,0.4-0.8,2.3,0.5c1.5,1,3.2,1.8,4.8,2.7c4.4,2.6,11.1,8.5,16,3.8c1-1,1.9-2.2,2.7-3.6
				c10.5-13.4,20.8-27.3,24.8-44.1c0.8-3.4-2.4-7.5-6.2-6.2c-18.6,6.9-37.5,13-56.6,18.3C753.5,371.9,741.4,373.1,741.1,380.5z
				 M755.8,381.6C755.8,381.6,755.8,381.6,755.8,381.6c-0.2,0.5-0.4,1.1-0.5,1.8c-0.1,0.5-0.1,0.9-0.1,1.3c-0.3-0.4-0.5-0.8-0.8-1.2
				c-0.2-0.3-0.6-0.8-1.1-1.2C754.1,382.1,755,381.9,755.8,381.6z"/>
			<path fill="#D66C44" d="M679.8,423.4c1-5.2,1.7-10.4,1.8-15.7c0.1-4.1-1.2-9.7,0.6-13.6c1.6-3.4,5.9-4.8,9.1-6.2
				c4.5-2,9-3.6,13.8-4.8c0.9-0.2,1.8-0.2,2.5,0c1.8-0.4,3.7,0.2,4.8,2.4c7.2,14.8,8.8,32.4,12,48.5c0.9,4.5-3.3,7.5-7.3,5.6
				c-10.8-4.9-22.1-8.2-33.8-10.1C680.5,429.1,679.3,425.8,679.8,423.4z"/>
			<path fill="#D66C44" d="M742.5,437.3c1.2-6.2,2.9-12.2,5-18.1c0.6-1.6,1.7-2.6,3-3.1c1-2.6,4-4.5,7.1-2.7c6.6,3.8,12.9,8,19,12.6
				c4.4,3.3,10.7,6.7,8.6,13.2c-1.1,3.3-3.5,6.5-5.1,9.6c-1.6,3.1-3.1,6.3-4.5,9.6c-3.1,7.2-5.5,14.6-7.6,22.1
				c-1.2,4.4-6.8,4.6-9.1,1.2c-3.5-5.2-7.1-10.4-10.6-15.7c-2.7-4-6.8-8.4-7.4-13.3C740.1,447.9,741.5,442.1,742.5,437.3z"/>
			<path fill="#D66C44" d="M794.7,447.4c0.6-2.2,2.1-3.5,3.9-4.6c0-1.9,1.1-3.8,3.6-4.4c7.4-1.8,23.8-3.7,25.9,6.4
				c1.1,5.2,1.3,10.7,1.6,16c0.2,4.6,0.3,9.1-2.3,13c-1.4,2.1-4.5,3.4-6.8,1.8c-7.8-5.3-15-11.4-21.2-18.5
				C796.8,454.4,793.6,451.4,794.7,447.4z"/>
			<path fill="#D66C44" d="M768.2,529c0,6,5,6.5,9.7,6.5c3.5,0,6.8,0.5,10.1,1.3c2.2,0.6,4.2,1.3,6.4,0.9c6.3-1.2,4.9-7.8,5.9-12.5
				c1.1-5.1,3-13.4,7.4-16.7c3.1-2.3,2.5-6.3,0.4-8.4c0-1.5-0.7-2.9-2.4-3.9c-3.4-2-6.7-4.1-10.1-6.1c-1.9-1.1-3.8-2.4-6-2.4
				c-5-0.2-9.5,4.6-12.1,8.3c-3.3,4.7-5,10.4-6.2,16C770.3,517.4,768.2,523.6,768.2,529z M789.8,498c0.4,0.2,0.9,0.5,1.4,0.8
				c-1.1-0.1-2.3,0.1-3.4,0.7c-0.1,0-0.1,0.1-0.2,0.1c0.3-0.3,0.5-0.5,0.8-0.8C789.2,498.5,789.7,498.2,789.8,498z"/>
			<path fill="#D66C44" d="M696.8,477.7c0.9,1.2,1.6,2.4,2.5,3.7c2.4,3.5,5,7.1,7.6,10.4c3.9,4.9,8.9,9.6,12.4,15
				c5.2,2.5,10.3,5.4,15.2,8.5c2.3,1.5,5,0.6,6.5-1.4c-1.1-3.5-2.8-7.1-3.9-10.4c-1.7-5.4-3.5-10.7-5.5-16c-3.3-8.8-7-18.2-12-26.3
				c-0.8-0.3-1.4-0.9-1.9-1.6c-0.9,0.1-1.8,0.5-2.6,1.1c-3.8,3.1-7.5,6.3-11.1,9.8C701.9,472.6,698.9,475.1,696.8,477.7z
				 M730.5,501.3c0.4-0.1,0.8-0.3,1.2-0.6c0,0.4,0.1,0.8,0.1,1.2C731.4,501.8,731,501.5,730.5,501.3z"/>
			<path fill="#D66C44" d="M486.6,692.6c13-5.2,26.2-0.5,38.8,3.8c4.4,1.5,8.8,2.6,11.5-2.3c3-5.6,4-12.5,4.6-18.7
				c0.4-3.9-3.2-5.4-6.2-4.5c-12.2-8.8-25.2-16.5-38.7-23.1c-2.6-1.3-6.8-0.4-7.3,3c-1.9,12.1-4.8,24-8.7,35.7
				C479.3,689.8,483.1,694,486.6,692.6z M522.5,685c-0.6-0.2-1.1-0.5-1.6-0.6c0.2-0.1,0.4-0.2,0.6-0.4c0.2,0.1,0.3,0.3,0.5,0.4
				c0.1,0.1,0.3,0.2,0.4,0.3C522.4,684.8,522.4,684.9,522.5,685z"/>
			<path fill="#D66C44" d="M529.8,624.2c0.7-4.5,7.2-7,10.6-9.1c5.3-3.4,10.5-6.7,15.8-10.1c2.6-1.7,5.1-0.6,6.4,1.4
				c2.3,0.9,3.3,3.7,2.8,6c-2.5,12.6-5.5,25.2-8.9,37.6c-1.2,4.5-6.7,4.5-9.1,1.2c-3.5-4.8-7.1-9.6-10.6-14.4
				C534.2,633.4,529,628.8,529.8,624.2z"/>
			<path fill="#D66C44" d="M540.8,481.9c0.2,0.2,0.3,0.5,0.4,0.7c0.4,0.5,0.7,1.2,0.9,2.1c0.8,4.4,2.5,9.4,2.3,14
				c-0.1,2.5-0.1,3.8,0.7,6.4c0.7,2.5,1.4,4.9,2.1,7.4c1,3.5-2.5,7.5-6.2,6.2c0,0-0.1,0-0.1-0.1c-7.5,0.1-15,0.2-22.5,0.4
				c-1.1,0-2-0.3-2.8-0.8c0,0,0,0,0,0C523.7,505.8,530.6,492.4,540.8,481.9z"/>
			<path fill="#D66C44" d="M481,830.9c-0.8-2.2-1.6-4.3-2.4-6.5c-0.1-0.5-0.2-0.9-0.4-1.4c-0.5-1.9-1.1-3.8-1.8-5.6
				c2.6-1.6,5.9-2.6,8.2-3.6l8.5-3.8c2.3-1,4.9-2.7,7.5-2.3c4.4,0.6,7.6,7,9.7,10.4c2.5,4.2,6,9.9,6.3,14.9
				c0.3,5.1-4.9,8.5-8.1,11.7c-4.9,4.8-9.8,9.7-14.7,14.5c-0.3,0.3-0.7,0.6-1,0.8c-1-2.3-2.5-4.5-3.5-6.8c-2-4.4-3.6-8.9-5.1-13.5
				C483.2,836.8,482.1,833.9,481,830.9C481,830.9,481,830.9,481,830.9z"/>
			<path fill="#D66C44" d="M1049.4,866.3c0.3-1.6,1.3-2.8,2.7-3.5c4.3-3.9,9-7.2,14.2-9.8c4.2-2.1,8,1.9,7.6,5.3c0.8,3,1.6,6,2.2,9
				c0.6,2.9,1.5,6.3-0.2,9.1c-1.4,2.4-4.1,3.3-6.6,4.3c-3.5,1.4-7.1,2.8-10.7,4.2c-3.9,1.5-6.4-2-6-5.3c-1.1-3.5-2.1-7-3-10.6
				C1049.3,868.2,1049.2,867.2,1049.4,866.3z"/>
			<path fill="#D66C44" d="M1002.2,907.4c-0.3-1.4-0.1-3,1.2-4.4c3.9-4.3,7.1-9,9.9-14.1c0.7-1.4,1.8-2.1,3-2.4
				c2.6-1.6,6.5-1.1,7.4,2.7c1,4.7,2,9.4,2.7,14.2c0.6,3.7,2.4,9.2,1,12.8c-3.4,8.9-14.7-1.1-20.2-0.1
				C1001.8,916.9,999,910.1,1002.2,907.4z"/>
			<path fill="#D66C44" d="M957.3,903.2c0.4-0.5,0.9-0.8,1.4-1c0,0,0,0,0-0.1c0.3-0.4,0.5-0.8,0.8-1.3c1.9-3.1,6.8-3.4,8.6,0
				c1.5,2.7,3,5.5,4.4,8.2c1.1,2.1,2.2,4.3,1.6,6.7c-0.7,2.6-3.2,4.1-5.2,5.7c-1.9,1.5-3.8,3.5-6.1,4.3c-5.5,2.1-8.9-4.9-11.1-8.8
				C948.5,911.1,953.7,907.3,957.3,903.2z"/>
			<path fill="#D66C44" d="M865.4,953.4c3.5-0.7,7-1.5,10.4-2.5c3.1-0.9,5.2,1,5.9,3.4c2.4,0.8,3.9,3.6,3.2,6l-7.3,25.2
				c-1.3,4.5-8.6,5-9.6,0c-1.8-8.7-3.8-17.4-6.1-26C861.3,957.1,862.7,953.9,865.4,953.4z"/>
			<path fill="#D66C44" d="M768.9,914.3c-0.3-0.8-0.3-1.8-0.1-2.8c0.7-2.4,3.6-4.5,6.2-3.5c5.5,2.2,11.1,4.3,16.6,6.5
				c2.5,1,4.3,3.4,3.5,6.2c-0.4,1.4-1.5,2.6-2.9,3.3c-0.2,0.4-0.5,0.8-0.9,1.2c-4.5,4.8-9,9.6-13.5,14.3c-3.1,3.3-8.4,0.7-8.5-3.5
				c-0.2-6.6-0.5-13.2-0.7-19.7C768.5,915.5,768.7,914.8,768.9,914.3z"/>
			<path fill="#D66C44" d="M734,874.6c1.9-9.3,6.8-18.6,10.2-27.4c1.1-2.7,3.6-4.1,6.1-3.4c2.1-0.9,4.7-0.6,6.4,1.8
				c1.5,2.2,3.4,4,5.6,5.5c2.1,1.4,4.2,2.4,5.2,4.8c1.9,4.8-2.7,11.4-4.6,15.7c-1.8,4.2-3.2,10.4-8,12.3c-2.4,0.9-4.4,0.3-6.7-0.5
				c-3.1-1.1-6-2.1-9.3-2.3C735.4,880.7,733.3,878,734,874.6z"/>
			<path fill="#D66C44" d="M622.1,751.3c0.6-3.2,3.8-5.8,7.1-3.3c4,3,8,6,11.9,9c2.7,2.1,6.4,4.1,6,8.1c-0.3,3.4-3.8,5.9-5.9,8.3
				L630.4,785c-3.2,3.4-8.2,0.5-8.5-3.5c-0.8-8.6-1.6-17.2-2.3-25.8C619.4,753.6,620.5,752.1,622.1,751.3z"/>
			<path fill="#D66C44" d="M633.2,917.5c0.1,3.6-0.3,8,3.5,9.9c3.8,1.9,10.1,0,14.2,0.2c3.7,0.2,8.6,2,11.7-0.7
				c3.5-3,1.9-9.5,1.7-13.5c-0.2-5.2-0.4-10.4-0.7-15.5c0.2-0.9,0.5-1.8,0.7-2.7c0.9-3.5-2.5-7.4-6.2-6.2
				c-5.2,1.7-10.3,3.6-15.3,5.7c-4,1.7-9,2.9-9.8,7.8C632.2,907.2,633,912.6,633.2,917.5z M654.5,917.8c-0.2,0-0.5,0-0.7-0.1
				c0,0,0,0,0,0c0.4-0.2,0.7-0.4,1-0.6c0,0.2,0,0.5,0,0.7C654.7,917.8,654.6,917.8,654.5,917.8z"/>
			<path fill="#D66C44" d="M699.6,809.2c8.4-8.6,16.7-17.9,27.7-23.3c4.7-2.3,9,3.1,7.2,6.6c0,0.2,0,0.5,0,0.7
				c-0.1,5.1-0.2,10.3-0.3,15.4c-0.1,3.6,0.7,8.4-0.5,11.8c-1.6,4.8-5.6,4.7-9.7,3.3c-2.4-0.4-4.4-1.7-7.1-2.9
				c-4.3-1.8-8.9-2.9-13.6-3.3C698.9,817.3,696.4,812.4,699.6,809.2z"/>
			<path fill="#D66C44" d="M710.6,930.9c3-8.8,6.4-17.5,10-26c0.5-1.1,1.2-1.9,2-2.4c1-3.9,6.8-6,9.1-1.5c3.2,6.4,6.4,12.9,9.7,19.3
				c1.6,3.2,3.2,6.4,4.8,9.7c1.2,2.4,3,5.1,3.3,7.8c0.5,5.7-4.9,7-9.1,8.6c-5.9,2.2-11.4,5.4-16.2,9.5c-2.2,1.8-6.5,2.2-7.9-1
				c-2-4.7-4.3-9.3-6.1-14C708.9,937.2,709.4,934.4,710.6,930.9z"/>
			<path fill="#D66C44" d="M555.7,779.4c2.9-9.4,5-19.7,8.9-28.8c3.2-7.5,8.9-4.3,13.2,0.2c1.3,1.3,3.3,3.3,5.2,5.5
				c0.5,0.5,0.9,1,1.3,1.6c1.7,2.3,3.1,4.7,3,7c0.2,0.4,0.4,0.8,0.6,1.2c1.5,3,3.8,7.1,3.2,10.5c-0.7,3.9-5.1,6.4-7.9,8.8
				c-4.3,3.6-8.5,7.3-12.8,10.9c-1.8,1.5-3.8,1.4-5.7,0c-3-2.3-8.3-5-10.1-8.4C553.4,785.1,554.9,782.1,555.7,779.4z"/>
			<path fill="#D66C44" d="M727.8,575.5c-1.4-6.2-6-12.2-10-16.9c-3-3.6-7.8-9.1-12.7-6.4c-1.7-0.3-3.4,0.4-4.3,2.6
				c-3.2,7.3-6.3,14.5-9.5,21.8c-2.6,5.9-4,10.7,1.3,15.5c3,2.7,6.5,5.1,9.7,7.6c2.1,1.6,4.2,3.9,6.9,4.4c6.4,1.2,9.5-7.2,12.2-11.5
				C724.6,587.4,729.2,582,727.8,575.5z"/>
			<path fill="#D66C44" d="M758.4,614.6c-13.5,3-27.2,5.2-41,6.5c-4.6,0.4-5.9,5.8-3.9,8.5c1.8,9.8,4.6,19.4,8.2,28.7
				c1.2,3.1,5.7,5.4,8.4,2.2c10.5-13,21.5-25.5,33.1-37.5C766.9,619.3,763.3,613.6,758.4,614.6z M729.7,629.8
				c-1.8,1.1-3.5,2.4-5,3.8c-0.2-1-0.5-2.1-0.7-3.1C725.9,630.2,727.8,630,729.7,629.8z M743.3,629.8c-0.2-0.7-0.5-1.4-0.9-1.9
				c1-0.2,2.1-0.3,3.1-0.5C744.8,628.2,744.1,629,743.3,629.8z"/>
			<path fill="#D66C44" d="M1057.2,813.7c-0.3-4.9-1.6-10-3.4-14.5c-0.4-0.9-0.9-1.6-1.6-2.2c-1.3-2-3.8-3.1-6.5-1.6
				c-6.1,3.5-11.6,7.8-16.5,12.9c-1.8,1.9-2,5.2,0,7.1c3.7,3.4,7.5,7.1,11.7,9.9c4,2.8,6.6,1.2,9.9-1.8
				C1053.9,820.7,1057.5,818.3,1057.2,813.7z"/>
			<path fill="#D66C44" d="M1037.6,843.5c-7-6.3-12.5-12.6-17.6-20.5c-1-1.6-2.5-2.3-4-2.3c-2.6-1.3-6.1-0.7-6.8,3
				c-1.1,6.2-2.1,12.4-2.9,18.7c-0.7,5.4-2.6,12.4-1.5,17.8c0.9,4.6,5.8,6,9.6,7.5c5.9,2.4,12,4.2,18.3,5.4c2.5,0.5,5.5-0.7,6.2-3.5
				c1.1-5.1,2.6-10.3,3.4-15.5C1042.9,849.4,1041,846.6,1037.6,843.5z M1026.9,847.4c-0.3-0.1-0.6-0.2-0.9-0.3
				c-0.4-0.7-1-1.3-1.8-1.9c0-0.1-0.1-0.3-0.1-0.4c0.4,0.4,0.8,0.8,1.2,1.2C1025.8,846.5,1026.3,846.9,1026.9,847.4z"/>
			<path fill="#D66C44" d="M978.4,875c-3.9-7.2-3.6-19.2-10.4-24.6c-1.7-1.4-4.1-2.1-6.1-0.8c-4,2.6-6.5,8-8.7,12.1
				c-2.7,4.8-5,9.8-7,15c-0.6,1.5-0.2,3,0.7,4.2c0.4,2.6,2.8,5.2,6.2,4.5c6.9-1.4,13.9-2.3,20.9-2.8
				C977.9,882.2,980.3,878.4,978.4,875z"/>
		</g>
	</g>
	
		<linearGradient id="SVGID_00000018216504568373696770000010567237987276114098_" gradientUnits="userSpaceOnUse" x1="987.2112" y1="913.3578" x2="825.769" y2="662.5219">
		<stop  offset="0" style="stop-color:#BA6464"/>
		<stop  offset="0.4104" style="stop-color:#BE5653"/>
		<stop  offset="1" style="stop-color:#C63B34"/>
	</linearGradient>
	<path fill="url(#SVGID_00000018216504568373696770000010567237987276114098_)" d="M836.1,323c48,0,94.6,9.4,138.4,27.9
		c42.3,17.9,80.4,43.6,113,76.2c32.7,32.7,58.3,70.7,76.2,113c18.5,43.8,27.9,90.4,27.9,138.4s-9.4,94.6-27.9,138.4
		c-17.9,42.3-43.6,80.4-76.2,113c-32.7,32.7-70.7,58.3-113,76.2c-43.8,18.5-90.4,27.9-138.4,27.9s-94.6-9.4-138.4-27.9
		c-42.3-17.9-80.4-43.6-113-76.2c-32.7-32.7-58.3-70.7-76.2-113c-18.5-43.8-27.9-90.4-27.9-138.4s9.4-94.6,27.9-138.4
		c17.9-42.3,43.6-80.4,76.2-113c32.7-32.7,70.7-58.3,113-76.2C741.5,332.4,788.1,323,836.1,323 M836.1,310.2
		c-203.4,0-368.4,164.9-368.4,368.4s164.9,368.4,368.4,368.4s368.4-164.9,368.4-368.4S1039.5,310.2,836.1,310.2L836.1,310.2z"/>
	<path fill="#E59B55" d="M995.8,563.9"/>
</g>
<g id="horn-shadow">
	
		<linearGradient id="SVGID_00000006666148029833643670000012878408768253538981_" gradientUnits="userSpaceOnUse" x1="788.5634" y1="1034.1047" x2="875.2946" y2="954.827" gradientTransform="matrix(-1 0 0 1 1633.9563 0)">
		<stop  offset="0" style="stop-color:#4A232B;stop-opacity:0"/>
		<stop  offset="0.4169" style="stop-color:#4A232B"/>
	</linearGradient>
	<path fill="url(#SVGID_00000006666148029833643670000012878408768253538981_)" d="M799.2,933.3c28,16.7,48.5,78.4,51.6,93.9
		c0.8,4-13.8,2.2-35.7,0.4c-21-1.7-31.5-2.5-37.6-4.2c-28.7-7.9-45.4-38.6-53.2-56.4c0.4-3.2,2.5-23.2,19.8-34.3
		C759.4,922.9,780.9,922,799.2,933.3"/>
	
		<radialGradient id="SVGID_00000165920396799787189120000011723355787702804893_" cx="978.3482" cy="469.0396" r="160.6847" gradientTransform="matrix(-1 0 0 1 1633.9563 0)" gradientUnits="userSpaceOnUse">
		<stop  offset="0.1077" style="stop-color:#4A232B"/>
		<stop  offset="1" style="stop-color:#C63B34;stop-opacity:0"/>
	</radialGradient>
	<path opacity="0.87" fill="url(#SVGID_00000165920396799787189120000011723355787702804893_)" d="M683.4,410.9
		c20.4,17.1,42.3,37.7,64.3,62.1c34.7,38.4,60.4,76.1,79.5,108.6c-59.8-8.8-126.9-25.2-197-54.6c-13.7-5.7-26.9-11.7-39.6-17.9
		c-21.2-26.4-19.7-64.8,3.4-89.4C617.2,394.8,655.7,391,683.4,410.9z"/>
	
		<radialGradient id="SVGID_00000053522121807111387160000002090481113596832154_" cx="1090.8011" cy="554.5365" r="186.5886" gradientTransform="matrix(-1 0 0 1 1633.9563 0)" gradientUnits="userSpaceOnUse">
		<stop  offset="0.1077" style="stop-color:#4A232B"/>
		<stop  offset="1" style="stop-color:#C63B34;stop-opacity:0"/>
	</radialGradient>
	<path opacity="0.66" fill="url(#SVGID_00000053522121807111387160000002090481113596832154_)" d="M551.7,504.9
		c34,21,39.5,54,61.9,83.8c12.9,17.2,34.8,37.8,74,51.5c-15.2,7-45.4,18.1-83.2,13.6c-4.1-0.5-65-8.7-104.2-60.7
		c-12.9-17.1-31.4-41.6-22.3-65.7c6.6-17.6,26.7-31.4,46.5-31.4C533.6,496,542.1,499,551.7,504.9z"/>
</g>
<g id="right-bottom-front-horn">
	<path fill="#E6D6B8" d="M732.5,1092.7c0,0-12.8-89.2-11-133.7c0.3-8.1,0.9-17,6.7-22.6c2.5-2.5,5.8-4.1,9.1-5.4
		c16.1-6.7,34.5-8.8,50.9-2.8c13.1,4.8,26.9,16.8,30.5,30.8c3.7,14.6-6.9,26.5-14.7,37.8c-10.3,14.8-21,29.4-32,43.7
		c-5.7,7.3-11.5,14.5-17.3,21.7C751.8,1065.6,732.5,1092.7,732.5,1092.7z"/>
	<g id="Layer_14">
		<path fill="#95A5AA" d="M737.2,930.9c31.4-13,50.9-2.8,50.9-2.8c2.8,1.2,27.4,11.3,30.6,30.8c1.3,8.2-13.7,22.2-33.6,51.9
			c0,0-42.5,62.2-46.9,69.3c-4.1,6.6-5.1,11.2-5.7,12.5c16.4-44,35.4-112.3,35.4-112.3c0.7-4.1,1.4-8.2,1.1-12.4
			c-0.6-10.6-7.1-24.2-21.6-28.3s-23.4,3.1-23.4,3.1s2.3-4.6,4.2-6.4C730.7,933.8,733.9,932.2,737.2,930.9z"/>
		<path fill="#95A5AA" d="M734,1088.4"/>
	</g>
</g>
<g id="mouth-bottom-highlight">
	<path fill="#BA6464" d="M901.7,882.4c7.3,4.2,24.6,12.9,47,10.8c9.7-0.9,17.7-3.6,23.6-6.1c5.4-2.5,12.5-6.6,19.7-13.1
		c9.9-9,15.4-18.6,18.3-24.9c-7.2,7.6-22.5,21.8-46.6,30C935.9,888.5,912.1,884.7,901.7,882.4z"/>
</g>
<g id="mouth">
	<g id="Layer_30">
		
			<radialGradient id="SVGID_00000173123360934038718380000005997112395285816764_" cx="773.9254" cy="873.6674" r="118.5694" gradientUnits="userSpaceOnUse">
			<stop  offset="0.4672" style="stop-color:#C63B34"/>
			<stop  offset="0.5515" style="stop-color:#C13A34"/>
			<stop  offset="0.6509" style="stop-color:#B33733"/>
			<stop  offset="0.7578" style="stop-color:#9B3331"/>
			<stop  offset="0.87" style="stop-color:#7A2C2F"/>
			<stop  offset="0.9854" style="stop-color:#50242B"/>
			<stop  offset="1" style="stop-color:#4A232B"/>
		</radialGradient>
		<path fill="url(#SVGID_00000173123360934038718380000005997112395285816764_)" d="M749,757.7l117.3,104.8l-39.9-52.4l-7.1-20.3
			l-22.1-13.4L786,757.7c0,0-14.8-15.8-25.9-10.2C749,753.2,749,757.7,749,757.7z"/>
	</g>
	<g>
		
			<linearGradient id="SVGID_00000167378872244294381350000015097234706167553408_" gradientUnits="userSpaceOnUse" x1="924.0973" y1="760.0942" x2="938.1643" y2="846.5803">
			<stop  offset="0" style="stop-color:#000F1F"/>
			<stop  offset="1" style="stop-color:#46496B"/>
		</linearGradient>
		<path fill="url(#SVGID_00000167378872244294381350000015097234706167553408_)" d="M826.4,793.1c0,0,44.1,103.8,129.1,82.6
			c85-21.2,70.3-124.4,70.3-124.4c-4.6,2.6-9.9,5.3-15.8,7.8c-7.5,3.2-14.5,5.5-20.8,7.2c-4.2,1.2-12.8,3.2-23.2,0.8
			c-10.7-2.5-17.4-8.3-21.3-11.7c-8.1-7.2-12.4-15.2-14.6-20.3c0,0,2.1,24.5-12.8,39.7c-18.2,18.5-46.8,20-60.3,20.9
			C844.3,796.3,833.6,794.7,826.4,793.1z"/>
	</g>
	<path fill="none" stroke="#000000" stroke-width="10" stroke-linejoin="round" stroke-miterlimit="10" d="M851.6,792.5
		c-13.5,0.9-24.8-0.9-32.4-2.6c0,0,46.5,112.4,136.2,89.4c89.7-22.9,74.2-134.6,74.2-134.6c-4.9,2.8-10.4,5.7-16.6,8.4"/>
</g>
<g id="mouth-tongue-teeth">
	<g>
		<defs>
			<path id="SVGID_00000111163393423023978760000007540717984042461874_" d="M809.3,755.2c0,0,6.9,18.4,17.3,38.1
				c21.6,41.1,63.8,98.4,129.6,81.6c97.4-24.9,64.1-157,64.1-157L809.3,755.2z"/>
		</defs>
		<clipPath id="SVGID_00000030461221880201205020000010112193036760709304_">
			<use xlink:href="#SVGID_00000111163393423023978760000007540717984042461874_"  overflow="visible"/>
		</clipPath>
		<g clip-path="url(#SVGID_00000030461221880201205020000010112193036760709304_)">
			
				<linearGradient id="SVGID_00000114043837797776644830000006274187631760246687_" gradientUnits="userSpaceOnUse" x1="964.2548" y1="878.8798" x2="940.7139" y2="840.0374">
				<stop  offset="0" style="stop-color:#134B85"/>
				<stop  offset="1" style="stop-color:#132E4A"/>
			</linearGradient>
			<path fill="url(#SVGID_00000114043837797776644830000006274187631760246687_)" d="M935.1,882.5c-30.1,0-53.3-16.8-54.2-17.6
				l-2.9-2.2l2.3-2.8c7.5-9.4,16.4-17,26.5-22.7c8.4-4.7,18.7-9.6,30.4-9.6c2.1,0,4.3,0.2,6.4,0.5c4.1,0.6,8.4,2.5,12.5,4.8
				c-0.2-1.2-0.1-2.1,0.1-2.9c1-3.9,4.3-6,5.5-6.8c2.8-1.8,6.3-2.7,10.5-2.7c14.1,0,33.4,10,38.9,13.1l3.2,1.7l-1.9,3.1
				c-3.3,5.5-7.1,10.6-11.5,15.2c-10.7,11.3-25.5,19.9-43.9,25.5C950.1,881.4,942.7,882.5,935.1,882.5z"/>
			<path d="M972.3,824.1c13.9,0,33.8,10.8,37.2,12.7c-2.3,3.9-5.9,9.1-11,14.6c-8.1,8.5-20.8,18-42.4,24.5c-7.2,2.2-14.3,3.1-21,3.1
				c-29.3,0-52.1-16.9-52.1-16.9c5.8-7.3,14.1-15.4,25.5-21.8c7.2-4,17.2-9.1,28.7-9.1c1.9,0,3.9,0.1,5.9,0.5
				c12.3,1.9,28.1,16.8,28.1,16.8S958,835.5,959.6,831c0.7-2.6,3-4.1,4.1-4.8C966,824.7,969,824.1,972.3,824.1 M972.3,817.1
				L972.3,817.1c-4.9,0-9.1,1.1-12.4,3.2c-1.3,0.8-4.8,3.1-6.5,7.3c-3.1-1.4-6.2-2.5-9.2-2.9c-2.3-0.4-4.6-0.5-6.9-0.5
				c-12.6,0-23.3,5.1-32.1,10c-10.5,5.9-19.8,13.8-27.6,23.6l-4.5,5.7l5.8,4.3c1,0.7,25,18.2,56.3,18.2c7.9,0,15.7-1.1,23.1-3.4
				c19-5.8,34.3-14.7,45.4-26.4c4.5-4.8,8.5-10.1,11.9-15.8l3.7-6.2l-6.3-3.5C1005.5,826.6,986.8,817.1,972.3,817.1L972.3,817.1z"/>
		</g>
		
			<radialGradient id="SVGID_00000044159419027237431980000010019066266094976151_" cx="932.847" cy="793.3658" r="67.1803" gradientTransform="matrix(0.8317 -0.5552 0.5552 0.8317 -260.3599 663.2751)" gradientUnits="userSpaceOnUse">
			<stop  offset="0" style="stop-color:#FFFFFF"/>
			<stop  offset="1" style="stop-color:#FFFFFF;stop-opacity:0"/>
		</radialGradient>
		
			<path opacity="0.43" clip-path="url(#SVGID_00000030461221880201205020000010112193036760709304_)" fill="url(#SVGID_00000044159419027237431980000010019066266094976151_)" d="
			M983.8,863.1c-2.8-5.2-5.6-8.4-7.8-10.4c-0.9-0.9-2-1.8-4.2-3.9c-1.8-1.7-3.5-3.3-5.5-5.7c-1-1.1-2.4-2.8-3.9-5
			c-2.6-3.7-3.3-5.2-2.9-6.5c0.1-0.3,0.3-1.1,0.9-1.4c3.3-1.7,15.9,11.8,21.8,28C983.1,860.4,983.6,862.2,983.8,863.1z"/>
		<g opacity="0.85" clip-path="url(#SVGID_00000030461221880201205020000010112193036760709304_)">
			<g>
				<path fill="#E6D6B8" d="M937.1,887.1c-13.7,0-27.2-9.4-27.8-9.8l-1.3-0.9l10.7-25c1.2-2.7,3.8-4.5,6.8-4.5
					c2.6,0,4.9,1.3,6.2,3.5l20,31.9l-1.6,1.1C946.4,885.9,942,887.1,937.1,887.1C937.1,887.1,937.1,887.1,937.1,887.1z"/>
				<path d="M925.4,849c1.7,0,3.5,0.8,4.5,2.5l19,30.3c-3.7,2.4-7.8,3.3-11.9,3.3c-13.2,0-26.7-9.4-26.7-9.4l10.1-23.5
					C921.4,850.1,923.4,849,925.4,849 M925.4,845c-3.8,0-7.2,2.2-8.6,5.7l-10.1,23.5l-1.3,3l2.7,1.9c0.6,0.4,14.7,10.1,29,10.1
					c5.3,0,10.1-1.3,14.1-4l3.3-2.1l-2.1-3.3l-19-30.3C931.7,846.7,928.7,845,925.4,845L925.4,845z"/>
			</g>
			<path fill="#95A5AA" d="M916.5,879.3c7.1,0.3,11.1-3.3,13.9-7.6c2.9-4.3-2.1-12.3-5.1-18.9c-3-6.6,3.8-2.3,3.8-2.3
				s17.7,28.6,19.7,31.1l0,0.3c-0.2,0.1-0.3,0.2-0.5,0.3c-2.7,1.4-8.3,3.8-15.2,2.7C924.2,883.4,915.9,879.3,916.5,879.3z"/>
		</g>
	</g>
</g>
<g id="upper-teeth">
	<g>
		<g>
			<path fill="#E6D6B8" d="M1003.7,799.8c-2.5,0-4.8-1.1-6.5-3L974.5,770c-0.5-0.6-0.6-1.4-0.3-2.1c0.3-0.7,1-1.2,1.8-1.2
				c0.3,0,33.6-0.5,41.8-16.3c0.4-0.7,1-1.1,1.8-1.1c0.2,0,0.5,0,0.7,0.1c0.9,0.4,1.5,1.3,1.3,2.3l-9.6,41.4
				C1011.1,797.1,1007.7,799.8,1003.7,799.8z"/>
			<path d="M1019.7,751.4l-9.6,41.4c-0.7,3.2-3.5,5.1-6.4,5.1c-1.8,0-3.6-0.7-5-2.3l-22.6-26.8
				C976.1,768.7,1010.8,768.4,1019.7,751.4 M1019.7,747.4c-1.5,0-2.8,0.8-3.5,2.1c-6.4,12.2-31.1,15.1-40.1,15.2
				c-1.5,0-3,0.9-3.6,2.3c-0.6,1.4-0.4,3.1,0.6,4.2l22.6,26.8c2,2.4,4.9,3.7,8,3.7c4.9,0,9.2-3.4,10.3-8.2l9.6-41.4
				c0.5-2-0.6-4-2.5-4.7C1020.6,747.5,1020.1,747.4,1019.7,747.4L1019.7,747.4z"/>
		</g>
		<path fill="#95A5AA" d="M1004.3,769.6c-1.7-1.2-5.9-1.4-14.4-1.3c-5,0.1-6.8,0.1-6.9-0.1c0-0.1,8.2-0.8,14.4-2.5
			c6.1-1.7,14-5.4,22.3-14.4c-0.8,3.5-1.5,6.3-1.9,8.1c-3.9,16.7-3.8,15.8-4.1,17.6c-0.8,4.3-3,14.7-3.9,16.6
			c-0.9,1.9-1.9,2.6-2.1,2.8c-1,0.8-2,1.1-2.7,1.2c1.2-3,2.6-7.8,2.8-13.8C1007.8,778.1,1007.9,772.3,1004.3,769.6z"/>
	</g>
	<g>
		<g>
			<path fill="#E6D6B8" d="M886,835c-2.3,0-4.5-1.1-5.9-3l-29.5-39.2l4.4,0.4c2.4,0.2,4.9,0.3,7.4,0.3h0c4,0,8-0.3,12-0.8
				c10.2-1.3,20.1-4.4,29.4-9.1l4.2-2.1l-14.7,48.2C892.2,832.9,889.4,835,886,835z"/>
			<path d="M904.6,785.4l-13.4,43.7c-0.8,2.5-3,3.9-5.2,3.9c-1.6,0-3.2-0.7-4.3-2.2l-26.9-35.6c2.3,0.2,4.8,0.3,7.5,0.3
				c3.8,0,7.9-0.2,12.3-0.8C887.5,793,897.7,788.9,904.6,785.4 M911.2,777.7l-8.4,4.2c-9.1,4.6-18.8,7.6-28.7,8.9
				c-3.9,0.5-7.8,0.8-11.7,0.8c-2.4,0-4.8-0.1-7.2-0.3l-8.9-0.7l5.4,7.1l26.9,35.6c1.8,2.4,4.6,3.8,7.5,3.8c4.2,0,7.8-2.7,9.1-6.7
				l13.4-43.7L911.2,777.7L911.2,777.7z"/>
		</g>
		<path fill="#95A5AA" d="M872.8,794.9c4.7-0.5,10.4-1.5,16.7-3.4c5.9-1.8,11-4,15.1-6L891,829.6c-1.1,2.6-3.3,3-3.3,3
			c1.4-4.2,3.1-11.5,1.1-19.7c-0.6-2.6-1.5-6-4.3-9.4C880.6,798.8,875,795.4,872.8,794.9z"/>
	</g>
</g>
<g id="upper-lips">
	
		<linearGradient id="SVGID_00000013164248752011446140000006250930211009037486_" gradientUnits="userSpaceOnUse" x1="910.6627" y1="754.4102" x2="902.6405" y2="712.8406">
		<stop  offset="0" style="stop-color:#C63B34"/>
		<stop  offset="1" style="stop-color:#C63B34;stop-opacity:0"/>
	</linearGradient>
	<path fill="url(#SVGID_00000013164248752011446140000006250930211009037486_)" d="M749,753.2c6.7-3.7,16.4-7.6,25.7-4.5
		c9.6,3.2,12.9,12.1,19,20.1c15.5,20.4,41.6,25.2,51.7,27.1c27,5,70.6-10.9,81.4-31.9c6-11.5,4.3-24.1,2.4-32.1
		c3,8.8,9.2,21.9,22.4,29.7c25.3,15.1,60.2,1,78.6-18.7c13.3-14.3,17.3-30.8,18.6-38.9c0,0,3.1-12.4,11.7-10.8"/>
	<path opacity="0.4" fill="#4A232B" d="M793.6,768.8c11.6,4.5,43.3,15,81.7,5.1c27-7,45.4-20.9,54.7-29.2c0.1,4-0.1,14.2-6.7,24.5
		c-8.7,13.6-22.2,17.6-25.5,18.4c-6.5,3-16.3,6.7-28.8,8.2c-14,1.7-25.5-0.1-33-1.8c-5.6-1.1-13.5-3.3-22-8.1
		C804.2,780.2,797.5,773.5,793.6,768.8z"/>
	<path opacity="0.4" fill="#4A232B" d="M935.5,742.1c7,3.1,30.4,12.3,59.2,4.8c33.2-8.8,49.7-33.8,53.3-39.5
		c-2.8,16.6-15.5,32.1-26.7,41.4c-12.2,10.2-24.4,15.1-32.1,17.5c-3.5,1.1-17.6,4.9-32.9-2.2C943.7,758.2,937.5,745.8,935.5,742.1z"
		/>
	<path fill="none" stroke="#000000" stroke-width="6" stroke-linecap="round" stroke-linejoin="round" stroke-miterlimit="10" d="
		M749,753.2c6.7-3.7,16.4-7.6,25.7-4.5c9.6,3.2,12.9,12.1,19,20.1c15.5,20.4,41.6,25.2,51.7,27.1c27,5,70.6-10.9,81.4-31.9
		c6-11.5,4.3-24.1,2.4-32.1c3,8.8,9.2,21.9,22.4,29.7c25.3,15.1,60.2,1,78.6-18.7c13.3-14.3,17.3-30.8,18.6-38.9
		c0,0,3.1-12.4,11.7-10.8"/>
</g>
<g id="eye">
	<g>
		<g>
			
				<radialGradient id="SVGID_00000118396294794026424940000011296412588178762665_" cx="807.6793" cy="361.6276" r="405.9549" gradientUnits="userSpaceOnUse">
				<stop  offset="0.104" style="stop-color:#293D2C"/>
				<stop  offset="0.509" style="stop-color:#4D7352"/>
				<stop  offset="0.5223" style="stop-color:#507E55"/>
				<stop  offset="0.5455" style="stop-color:#599A5D"/>
				<stop  offset="0.5757" style="stop-color:#68C86A"/>
				<stop  offset="0.607" style="stop-color:#79FF79"/>
			</radialGradient>
			<ellipse fill="url(#SVGID_00000118396294794026424940000011296412588178762665_)" cx="885.6" cy="511.5" rx="107.6" ry="107.5"/>
			<path d="M885.6,407c57.8,0,104.6,46.8,104.6,104.5s-46.8,104.5-104.6,104.5S781,569.2,781,511.5S827.8,407,885.6,407 M885.6,401
				c-29.5,0-57.3,11.5-78.2,32.4c-20.9,20.9-32.4,48.6-32.4,78.1c0,29.5,11.5,57.3,32.4,78.1c20.9,20.9,48.7,32.4,78.2,32.4
				s57.3-11.5,78.2-32.4c20.9-20.9,32.4-48.6,32.4-78.1c0-29.5-11.5-57.3-32.4-78.1C942.9,412.5,915.1,401,885.6,401L885.6,401z"/>
		</g>
		<circle fill="#133338" cx="880.9" cy="507.8" r="66.4"/>
		
			<linearGradient id="SVGID_00000036218939326457808390000001941192297879354807_" gradientUnits="userSpaceOnUse" x1="769.1254" y1="437.7538" x2="754.5568" y2="562.6277" gradientTransform="matrix(-1 0 0 1 1633.9563 0)">
			<stop  offset="0" style="stop-color:#FFFFFF"/>
			<stop  offset="1" style="stop-color:#FFFFFF;stop-opacity:0"/>
		</linearGradient>
		<circle fill="url(#SVGID_00000036218939326457808390000001941192297879354807_)" cx="872.2" cy="500.9" r="42.2"/>
	</g>
</g>
<g id="right-top-front-horn">
	<path fill="#E6D6B8" d="M683.4,410.9c0,0-49.1-40.8-82-88.9s-55.1-117.5-35.2-179.4C516.6,191,501.1,284,529.8,377.4
		c16.5,53.4,44.2,114.6,54.5,123.9c14.9,13.6,47.2,21.4,89.7-19.4S683.4,410.9,683.4,410.9z"/>
	<path fill="#95A5AA" d="M600.7,504.1c7.2,0.4,25-2.3,34.6-21.7c9.6-19.3-6.5-39.7-6.5-39.7s-33.6-48.8-56.6-89.5
		s-31.2-79-33.1-117.6c-0.6-13.2,1.9-37.2,5.3-50.5c6.4-25.8,16.5-38.3,18.2-42.5c0,0,0,0,0,0c-20.5,61.9,2.3,131.3,36.1,179.4
		c33.9,48.1,84.3,88.9,84.3,88.9s33.3,31.6-10.4,72.4C629,524,599.6,515,584.3,501.3C581.9,499.2,583.8,503.2,600.7,504.1z"/>
	<path fill="#E6D6B8" d="M695.5,436.9c-8.6-13.6-26.6-27-38.9-38.5c-14.9-13.8-39.5-37.7-68.6-82.4
		c-33.9-52.1-44.2-115.3-21.8-173.5c-19.9,61.9,2.2,131.3,35.2,179.4c33,48.1,82,88.9,82,88.9S696.4,423.5,695.5,436.9z"/>
</g>
<g id="right-top-side-horn">
	<path fill="#E6D6B8" d="M560.2,547.7c-2.4,19-19.6,32-32.9,37c-36.1,13.7-81.6-23.4-102.5-48.9c-40.7-49.9-33.6-112.2-31.2-128.6
		c14.4,44.8,35.7,63.7,52,72.7c41.7,23,86.4,1.4,107.3,30.3C564.6,526.1,560.4,546.1,560.2,547.7z"/>
	<path fill="#95A5AA" d="M488.8,578c6.8-0.7,16.8-1.7,21.7-8.2c5.2-7,2.3-17.2,1.3-20c-7-20.9-33.3-16.2-62.9-38.9
		c-24.4-18.6-35.7-43.5-42.1-57.4c-7.7-16.8-11.5-32.1-13.5-43.7c0.2-1.8,0.4-3.3,0.6-4.6c7.2,22.4,16.1,38.3,25.3,49.8
		c5.2,6.5,13.5,15.7,26.7,22.9c27.2,14.8,52.1,7.4,89.1,18.9c4.9,1.5,12.6,4.2,18.2,11.3c5.6,7.1,7.6,15.8,7.6,21.3
		c0,0,1.1,7.7,0,15.3c-0.4,3-1.2,5.7-1.2,5.7c0,0,0,0,0,0c-0.8,3.4-1.8,5.9-2.3,7c-2.6,6.1-6.2,10-8.4,12.5c-1.2,1.3-3.6,3.8-7,6.4
		c-6.5,5-12.2,7.2-14.3,8c0,0-6.1,2.4-12.6,3.1c-17.5,1.9-36.7-8.3-39.7-10C478.6,578.2,483.3,578.6,488.8,578z"/>
	<path fill="#E6D6B8" d="M393.9,405.4c1.4,3.8,3.3,9.7,6,15.9c1.5,3.4,6.4,14.6,11.6,23c2.9,4.7,13.7,21.9,33.8,33.4
		c15.2,8.7,29.4,10.6,37,11.6c12.8,1.6,55.1,6,64.6,13c0,0,0,0,0,0c0,0.1-36.8-4.8-50.7-4.8c-4.7,0-19.8-0.4-34.5-5.6
		c-20-7.1-32-20.4-39.3-28.6C404.8,443.9,394,405.8,393.9,405.4z"/>
</g>
<g id="mustache-shadow">
	
		<radialGradient id="path4237_00000145737551920185503530000011808080458594699174_" cx="827.9153" cy="540.8918" r="450.413" fx="948.4485" fy="496.0836" gradientTransform="matrix(1.028679e-13 1 -0.9737 1.001675e-13 1354.6084 -287.0235)" gradientUnits="userSpaceOnUse">
		<stop  offset="0.6648" style="stop-color:#4A232B"/>
		<stop  offset="1" style="stop-color:#C63B34;stop-opacity:0"/>
	</radialGradient>
	
		<path id="path4237_1_" opacity="0.49" fill-rule="evenodd" clip-rule="evenodd" fill="url(#path4237_00000145737551920185503530000011808080458594699174_)" d="
		M928.9,732.1c1.9-0.4,3.2,8.9,11.8,18.1c5.9,6.3,11.8,11.6,11.8,11.6c8.5-4.3,15.5-11.7,19.1-21.6c7.8-22.1,14.9-42.4,17.4-49
		c3.9-10.5,9.5-27.1,21.5-35.5c11.3-8.5,26.4-3.6,31.9,0.5c25,18.4,22.6,43.5,45.7,57c27,15.8,76.7-3.3,98.4-36.9
		c4.1-6.4,23.7-36.6,8.9-57.6c-10.8-15.2-36-20.7-60.8-10.4c24.9,53.5,27.1,63.3,17.6,72.3c-5.6,5.3-16.2,5.9-27.3-6.4
		c-12.1-13.4-32.7-43.2-32.7-43.2c-17.6-29.6-27.6-51.4-58.4-45.7c-20.1,3.8-32.3,19.8-40.7,28.2c-28.3,28.4-17.6,54.5-46.3,87.1
		c-6.3,7.2-9.5,10.7-13.3,12c-26.9,8.6-48-53-100-62.2c-33.6-6-61.8,13.2-67.4,16.9c-23,15.6-39.8,41.3-45.6,75.7
		c-6.3,37.3-8.9,55.5,17.9,95.1c14,24.1,14.1,28.8,10.1,30.9c-9.5,5-37-21.2-40.8-24.9c-28.8-28-58.7-67.2-79.8-96.8
		c4.1,18.4,12.2,45.3,29.8,73.8c14.4,23.4,30.5,40.4,43.1,51.8c0,0,23.4,21.8,40.4,31.4c17.8,10.1,30.8,14.1,45.7,11.9
		c2.7-1.4,12.9-4.4,15.6-13.9c7-24.3-4.8-43.7-21.2-85.2c-16.9-46.5-8.5-68.2,0.1-81.6c8.9-13.1,44.8-24.4,89.4-4.9
		c9.6,3.9,25.2,15,40.2,26.7c4.8,3.8,9.8,8.4,13.4,6.8C932.2,761.1,925.5,732.9,928.9,732.1z"/>
</g>
<g id="mustache-base">
	<g id="path4237">
		<g>
			
				<linearGradient id="SVGID_00000126299870968766232810000009457739220502750864_" gradientUnits="userSpaceOnUse" x1="860.8724" y1="585.2478" x2="952.9517" y2="765.4459">
				<stop  offset="0" style="stop-color:#8381C5"/>
				<stop  offset="0.5664" style="stop-color:#7E55B3;stop-opacity:0.9961"/>
				<stop  offset="1" style="stop-color:#A52ECB;stop-opacity:0.9922"/>
			</linearGradient>
			<path fill-rule="evenodd" clip-rule="evenodd" fill="url(#SVGID_00000126299870968766232810000009457739220502750864_)" d="
				M632.6,744.6c0,0,4.5,15.8,16.4,33.5c4.8,7.2,23.7,34.1,43.1,51.8c0,0,23.4,21.8,40.4,31.4c17.8,10.1,30.8,14.1,45.7,11.9
				c2.7-1.4,12.9-4.4,15.6-13.9c7-24.3-4.8-43.7-21.2-85.2c-16.9-46.5-8.5-68.2,0.1-81.6c8.9-13.1,44.8-24.4,89.4-4.9
				c9.6,3.9,25.2,15,40.2,26.7c20.8,16.3,51.5,7.4,60.3-17.5c7.8-22.1,14.9-42.4,17.4-49c3.9-10.5,9.5-27.1,21.5-35.5
				c11.3-8.5,26.4-3.6,31.9,0.5c17.8,13,35,34.9,45.7,57c5.4,11.1,7.6,12.3,7.6,12.3c12.1,13.3,37.9,14.1,69.7-5.2
				c32.7-19.1,44-48.3,28.4-64.4c-14.6-15.2-59.3-47.5-59.3-47.5c24.9,53.5,27.1,63.3,17.6,72.3c-5.6,5.3-16.2,5.9-27.3-6.4
				c-12.1-13.4-32.7-43.2-32.7-43.2c-17.6-29.6-27.6-51.4-58.4-45.7c-20.1,3.8-32.3,19.8-40.7,28.2c-29.3,32.8-38.5,65.3-46.3,87.1
				c-2.9,8.2-5.7,29.7-5.7,29.7c-16.6-52.2-63.1-74.5-107.5-79.9c-54.6-4.3-102.3,29.5-113,92.6c-6.3,37.3-8.9,55.5,17.9,95.1
				c14,24.1,14.1,28.8,10.1,30.9c-5.7,2.9-32.8-19.1-40.8-24.9C678.9,786.4,632.8,744.8,632.6,744.6z"/>
			<defs>
				<filter id="Adobe_OpacityMaskFilter" filterUnits="userSpaceOnUse" x="632.6" y="541.3" width="559.4" height="332.6">
					
						<feColorMatrix  type="matrix" values="-1 0 0 0 1  0 -1 0 0 1  0 0 -1 0 1  0 0 0 1 0" color-interpolation-filters="sRGB" result="source"/>
				</filter>
			</defs>
			
				<mask maskUnits="userSpaceOnUse" x="632.6" y="541.3" width="559.4" height="332.6" id="SVGID_00000117651640846404908660000002469817419562432688_">
				<g filter="url(#Adobe_OpacityMaskFilter)">
					<image overflow="visible" width="565" height="337" xlink:href="BE2B129960F81DF9.jpg"  transform="matrix(1 0 0 1 630 539)">
					</image>
				</g>
			</mask>
			
				<path opacity="0.75" mask="url(#SVGID_00000117651640846404908660000002469817419562432688_)" fill-rule="evenodd" clip-rule="evenodd" fill="#A35F50" d="
				M632.6,744.6c0,0,4.5,15.8,16.4,33.5c4.8,7.2,23.7,34.1,43.1,51.8c0,0,23.4,21.8,40.4,31.4c17.8,10.1,30.8,14.1,45.7,11.9
				c2.7-1.4,12.9-4.4,15.6-13.9c7-24.3-4.8-43.7-21.2-85.2c-16.9-46.5-8.5-68.2,0.1-81.6c8.9-13.1,44.8-24.4,89.4-4.9
				c9.6,3.9,25.2,15,40.2,26.7c20.8,16.3,51.5,7.4,60.3-17.5c7.8-22.1,14.9-42.4,17.4-49c3.9-10.5,9.5-27.1,21.5-35.5
				c11.3-8.5,26.4-3.6,31.9,0.5c17.8,13,35,34.9,45.7,57c5.4,11.1,7.6,12.3,7.6,12.3c12.1,13.3,37.9,14.1,69.7-5.2
				c32.7-19.1,44-48.3,28.4-64.4c-14.6-15.2-59.3-47.5-59.3-47.5c24.9,53.5,27.1,63.3,17.6,72.3c-5.6,5.3-16.2,5.9-27.3-6.4
				c-12.1-13.4-32.7-43.2-32.7-43.2c-17.6-29.6-27.6-51.4-58.4-45.7c-20.1,3.8-32.3,19.8-40.7,28.2c-29.3,32.8-38.5,65.3-46.3,87.1
				c-2.9,8.2-5.7,29.7-5.7,29.7c-16.6-52.2-63.1-74.5-107.5-79.9c-54.6-4.3-102.3,29.5-113,92.6c-6.3,37.3-8.9,55.5,17.9,95.1
				c14,24.1,14.1,28.8,10.1,30.9c-5.7,2.9-32.8-19.1-40.8-24.9C678.9,786.4,632.8,744.8,632.6,744.6z"/>
		</g>
		<path d="M1034.4,541.3c23.7,0,33.4,20.2,49,46.6c0,0,20.6,29.8,32.7,43.2c6.5,7.2,12.8,10,18.1,10c3.7,0,6.9-1.4,9.2-3.6
			c9.5-9,7.3-18.8-17.6-72.3c0,0,44.7,32.4,59.3,47.5c15.5,16.1,4.3,45.3-28.4,64.4c-17,10.3-32.3,14.8-44.7,14.8
			c-10.8,0-19.4-3.5-25.1-9.7c0,0-2.3-1.2-7.6-12.3c-10.7-22.1-27.9-44-45.7-57c-3.3-2.4-10-5.1-17.3-5.1c-4.9,0-10.1,1.2-14.6,4.7
			c-12,8.4-17.6,24.9-21.5,35.5c-2.5,6.6-9.5,26.8-17.4,49c-5.8,16.3-20.9,25.8-36.6,25.8c-8.2,0-16.6-2.6-23.8-8.2
			c-15-11.7-30.6-22.8-40.2-26.7c-17.3-7.6-33.3-10.5-46.9-10.5c-21.5,0-37.1,7.4-42.6,15.4c-8.6,13.4-17,35.1-0.1,81.6
			c16.3,41.5,28.2,60.8,21.2,85.2c-2.7,9.5-13,12.5-15.6,13.9c-2.7,0.4-5.3,0.6-7.9,0.6c-11.9,0-23.3-4.2-37.9-12.5
			c-17-9.7-40.4-31.4-40.4-31.4c-19.4-17.8-38.3-44.7-43.1-51.8c-11.9-17.7-16.4-33.5-16.4-33.5c0.2,0.2,46.2,41.8,66.4,56.5
			c7.4,5.4,31.8,25.1,39.5,25.1c0.5,0,0.9-0.1,1.3-0.3c4-2.1,3.9-6.8-10.1-30.9c-26.8-39.5-24.2-57.8-17.9-95.1
			c10-59.5,53.1-93,103.8-93c3,0,6.1,0.1,9.2,0.4c44.5,5.4,90.9,27.8,107.5,79.9c0,0,2.8-21.5,5.7-29.7
			c7.8-21.8,16.9-54.4,46.3-87.1c8.4-8.4,20.5-24.4,40.7-28.2C1028.4,541.6,1031.5,541.3,1034.4,541.3 M1034.4,534.3
			C1034.4,534.3,1034.4,534.3,1034.4,534.3c-3.4,0-6.9,0.4-10.7,1.1c-19.4,3.6-32.1,17.2-40.5,26.1c-1.4,1.5-2.7,2.8-3.8,4
			c-0.1,0.1-0.2,0.2-0.3,0.3c-27.3,30.5-37.7,60.6-45.2,82.5c-0.8,2.4-1.6,4.7-2.4,6.9c-0.7,2-1.4,4.7-2.1,7.7
			c-8.8-15.6-21-28.6-36.5-39c-18.5-12.3-41.8-20.5-67.2-23.6c-0.1,0-0.2,0-0.3,0c-3.2-0.3-6.5-0.4-9.7-0.4
			c-27.3,0-52,8.9-71.7,25.9c-20.4,17.6-33.9,42.8-39,73c-3,17.8-5.6,33.2-3.5,48.8c2.1,15.9,8.8,31.2,22.4,51.2
			c5.2,8.9,8,14.6,9.6,18.1c-1.9-1-4.3-2.5-7.5-4.7c-6.2-4.2-12.8-9.2-17.6-12.9c-2-1.6-3.8-2.9-5.1-3.9
			c-19.8-14.4-65.4-55.6-65.8-56c-1.3-1.2-3-1.9-4.7-1.9c-1.3,0-2.5,0.3-3.7,1c-2.7,1.6-3.9,4.9-3.1,7.9c0.2,0.7,5,17.1,17.3,35.5
			c2.3,3.4,22.8,33.5,44.2,53.1c1.3,1.2,24.3,22.5,41.7,32.4c16.5,9.4,28.9,13.4,41.3,13.4c2.9,0,5.9-0.2,8.9-0.7
			c0.8-0.1,1.5-0.4,2.2-0.7c0.2-0.1,0.7-0.3,1.1-0.5c4.4-1.9,14.8-6.3,18.1-17.7c6.4-22.3-1.3-40.9-13.1-69.2
			c-2.5-6.1-5.4-12.9-8.3-20.4c-15.6-43-8.6-62.8-0.6-75.3c4.2-6.1,18.2-12.3,36.7-12.3c14.2,0,29,3.3,44,9.9c0.1,0,0.1,0.1,0.2,0.1
			c5.3,2.1,16.2,8.3,38.5,25.7c8.1,6.4,17.9,9.7,28.1,9.7c19.4,0,36.7-12.2,43.1-30.4c2.8-7.8,5.5-15.5,7.9-22.3
			c4.4-12.5,7.9-22.4,9.5-26.6l0.7-1.8c3.7-10,8.8-23.7,18.3-30.3c0.1,0,0.1-0.1,0.2-0.1c2.9-2.2,6.4-3.3,10.4-3.3
			c5.9,0,11.1,2.3,13.2,3.8c16.5,12,33.2,32.9,43.5,54.4c4.4,9.2,7.2,12.8,9.2,14.5c7.1,7.5,17.4,11.5,29.8,11.5
			c14.4,0,31.1-5.5,48.2-15.8c21.6-12.6,36-30.6,38.4-48c1.4-10.4-1.6-20.1-8.5-27.3c-14.9-15.4-58.4-47-60.2-48.4
			c-1.2-0.9-2.7-1.3-4.1-1.3c-1.6,0-3.2,0.5-4.5,1.6c-2.5,2-3.2,5.5-1.9,8.4c11.3,24.3,18.8,41.4,21.2,51.5
			c2.1,8.8,0.2,10.6-2.1,12.8c-0.8,0.8-2.2,1.7-4.4,1.7c-3.9,0-8.4-2.7-12.9-7.7c-11.1-12.3-30.2-39.7-32-42.3
			c-1.3-2.2-2.5-4.3-3.7-6.3c-7-11.9-13-22.3-20.5-30C1056.3,538.7,1046.3,534.3,1034.4,534.3L1034.4,534.3L1034.4,534.3z"/>
	</g>
</g>
<g id="mustache-texture">
	<g opacity="0.67">
		<g>
			<path fill="#C9A481" d="M934.3,701.4c-11.4-4.5-21.7-11.9-29.1-21.7c-5.3-7-8.8-15.3-15.1-21.7c-11.9-12.2-29.1-18.2-45.6-21.2
				c-10-1.8-20.3-2.8-30.5-2.5c-8.8,0.3-17.6,0.9-26.1,2.9c-11.5,2.7-22.3,7.9-31.4,15.6c-16.5,14-26.3,35.2-28,56.7
				c-0.9,11.7,1.2,23.7,4.1,35c2,7.7,4.6,15.3,7.8,22.6c6.1,14,11.3,28.8,14.5,43.9c1.5,7.1,2.9,15,1.2,22.1
				c-0.6,2.4-1.6,4.9-3.6,6.4c-2.2,1.6-5,1.9-7.7,1.8c-7.9-0.3-15.7-3.9-22.7-7.3c-7.3-3.6-14.2-7.7-21-12.1
				c-8.3-5.3-16.2-11-23.7-17.4c-8.5-7.3-16.2-15.4-23.3-24c-2.6-3.2-5.1-6.6-7.5-10c-1.1-1.6-3.7-0.1-2.6,1.5
				c12.9,18.2,28.7,34.1,47,46.8c5.8,4,11.7,7.8,17.7,11.3c7.5,4.4,15.2,8.5,23.4,11.4c6.2,2.2,14.2,4.5,20.5,1.4
				c5.6-2.7,6.9-9.5,7.1-15.1c0.3-8.3-1.5-16.7-3.6-24.6c-2.1-8.3-4.9-16.5-7.9-24.6c-2-5.5-4.4-10.8-6.6-16.2
				c-3.7-9.1-6.5-18.6-8.3-28.3c-2.1-10.9-2.8-21.8-0.7-32.8c2-10.5,5.9-20.7,11.6-29.7c6.6-10.4,15.8-19.1,26.8-24.9
				c9.4-5,19.9-7.6,30.5-8.6c10.4-1,20.9-1,31.4,0.1c16.1,1.7,32.9,5.7,46.6,14.9c3.5,2.4,6.8,5.1,9.7,8.3c2.7,3,4.9,6.4,6.9,9.9
				c2.5,4.3,5.2,8.4,8.3,12.3c4.2,5.1,9.1,9.5,14.6,13.2c4.5,3.1,9.4,5.6,14.6,7.5C935.3,705,936.1,702.1,934.3,701.4L934.3,701.4z"
				/>
		</g>
	</g>
	<g opacity="0.67">
		<g>
			<path fill="#C9A481" d="M697.7,832.7c6.7,4.3,13.7,8.1,21.1,11.2c4.8,2,9.7,3.7,14.6,5.4c4.3,1.5,8.6,2.9,13.1,4
				c6,1.4,13.4,2.6,18.6-1.7c4.3-3.5,5.2-9.6,5.1-14.8c-0.1-8-2-15.9-3.9-23.6c-2.4-9.4-4.9-18.9-7.9-28.1
				c-1.6-4.9-3.6-9.6-5.5-14.3c-2.4-5.6-4-11.5-5.6-17.4c-4.1-15.3-7.2-31-5.5-46.9c1.6-14.6,7.7-28.6,18-39.1
				c6-6.2,13.4-11,21.6-13.9c7.6-2.7,15.6-3.8,23.7-3.8c15.2,0.1,30.2,4.1,44.3,9.3c5.3,2,10.6,4.2,15.8,6.5
				c7.3,3.2,14.9,6.2,21.7,10.5c5.9,3.7,10.3,8.6,14.5,14c2.5,3.1,5,6.1,8,8.7c3.6,3.2,7.8,5.7,12.2,7.6c3.6,1.5,7.3,2.6,11.1,3.3
				c1.9,0.3,2.7-2.5,0.8-2.9c-8.6-1.6-16.9-5.3-23.3-11.3c-5.4-5.1-9.2-11.5-14.7-16.5c-5.1-4.7-11.2-8-17.5-10.9
				c-6.4-3-12.8-5.8-19.3-8.5c-13.2-5.5-26.9-10-41-11.9c-16-2.2-32.8-0.7-47,7.5c-12.6,7.3-22.1,19.1-27.4,32.5
				c-6.4,16.3-5.8,34.2-2.5,51.1c2.4,12.2,5.7,24.3,10.6,35.8c2.4,5.7,4.4,11.5,6.1,17.5c2.7,9.4,5.5,18.9,7.6,28.4
				c1.5,6.8,3.1,14.2,2,21.2c-0.4,2.3-1.1,4.7-2.6,6.5c-1.6,1.9-4,3-6.4,3.3c-3.5,0.4-7-0.2-10.4-1c-4.3-1-8.6-2.4-12.8-3.9
				c-9.1-3.1-18-6.5-26.4-11.1c-3-1.7-6-3.4-8.9-5.3C697.6,829,696.1,831.6,697.7,832.7L697.7,832.7z"/>
		</g>
	</g>
	<g opacity="0.67">
		<g>
			<path fill="#C9A481" d="M933.9,714.4c-8.2-1.2-16.1-3.9-23.1-8.3c-6-3.8-10.6-8.8-15.6-13.7c-6.2-6-13.3-11-21-15
				c-7.1-3.7-14.5-6.6-21.9-9.5c-15.6-5.9-31.9-10.2-48.7-9.3c-8.6,0.5-17,2.9-24.7,6.5c-6.5,3.1-12.9,7.2-17.6,12.7
				c-8,9.4-11,21.8-11.6,33.9c-0.6,11.6,0.9,23.2,3.3,34.6c2,9.4,4.6,18.6,8,27.6c5,13.1,11.6,25.7,15.3,39.3
				c2.1,7.8,3.3,15.8,3.6,23.8c0.3,7,0.7,16-4.5,21.5c-3.9,4.1-9.7,5.3-15.1,5.1c-7.7-0.2-15.3-2.5-22.3-5.5
				c-4.3-1.8-8.4-3.9-12.4-6.2c-1.7-1-3.2,1.6-1.5,2.6c7.8,4.4,16,8.3,24.7,10.5c6.3,1.6,13.3,2.5,19.7,0.8
				c6-1.5,10.6-5.5,12.8-11.3c1.3-3.6,1.6-7.4,1.7-11.2c0.1-4.3-0.1-8.7-0.5-13c-0.8-7.7-2.3-15.3-4.7-22.6
				c-2.1-6.6-4.8-13-7.6-19.3c-4.7-10.8-9-21.7-12.1-33.1c-2.6-9.8-4.6-19.9-5.3-30.1c-0.9-11.9-0.4-24.7,4.6-35.7
				c2.5-5.6,6.2-10.5,11.1-14.4c6.3-5.1,13.9-8.7,21.6-11c16.3-4.8,34.2-2.2,50.2,2.8c7.5,2.4,15,5.3,22.3,8.4
				c7.6,3.2,15,7.1,21.8,12c3.5,2.6,6.8,5.5,9.9,8.6c2.2,2.2,4.3,4.5,6.6,6.6c6.4,5.8,13.8,10.1,22,12.7c3.3,1.1,6.7,1.8,10.1,2.3
				C935,717.6,935.8,714.7,933.9,714.4L933.9,714.4z"/>
		</g>
	</g>
	<g opacity="0.67">
		<g>
			<path fill="#C9A481" d="M934.3,698.7c-8.2-5-13.1-12.9-15.9-21.8c-1.3-4.1-4-7.8-6.7-11.2c-9.5-12.2-22.2-22.4-35.6-30
				c-17.8-10.2-38.2-15.9-58.8-15.1c-22.2,0.9-44,9.1-61.8,22.4c-16.5,12.4-30.3,29.7-35.2,50c-2.8,11.4-3,23.4-1.8,35
				c1.2,11.6,3.9,23.1,8.4,33.9c3.7,9,7.5,17.8,10.7,27c2.1,6.3,4.1,12.6,5.9,19c1.3,4.5,2.7,9.1,3.4,13.8c0.3,2.3,0.6,5.3-0.6,7.3
				c-0.9,1.5-2.5,2.2-4.3,2.3c-5.9,0.4-12-2.5-17.2-5c-11.9-5.7-23-13.1-33.6-20.8c-16.7-12.2-31.6-26.9-44.2-43.3
				c-2.7-3.5-5.3-7.1-7.8-10.8c-1.1-1.6-3.7-0.1-2.6,1.5c12.7,18.6,28.1,35.4,45.7,49.4c9.5,7.6,19.7,14.5,30.2,20.7
				c6.4,3.7,13,7.3,20,9.6c4.5,1.5,10.8,3.1,14.9-0.3c4.8-4,2.5-12.2,1.3-17.2c-1.4-5.7-3.2-11.3-4.9-16.9
				c-1.9-6.2-3.9-12.3-6.2-18.4c-3.2-8.4-7.1-16.4-10-24.9c-4.1-11.9-6.3-24.4-6.6-37c-0.3-11.3,1-22.6,5.1-33.2
				c3.7-9.7,9.5-18.5,16.5-26.1c14.8-16.3,35-27.8,56.4-32.7c21.1-4.9,43.1-2.6,63,5.9c15.8,6.7,30.3,16.8,42,29.3
				c3.7,4,7.4,8.2,10,13c0.9,1.6,1.3,2.6,1.8,4.4c1.2,3.9,2.8,7.6,5,11.1c3.1,4.7,7.2,8.7,12,11.7
				C934.4,702.3,935.9,699.7,934.3,698.7L934.3,698.7z"/>
		</g>
	</g>
	<g opacity="0.67">
		<g>
			<path fill="#C9A481" d="M936.4,700.7c6.2-6.8,10.9-15,13.5-23.9c2-7,3.9-14,6-21c3.6-12.3,7.1-24.8,11.8-36.7
				c5.5-14,13.5-27.1,24.7-37.2c6.2-5.6,13.5-10.3,20.9-14.1c7.6-3.9,16.9-7,25.3-3.9c6.3,2.3,11.3,7.9,15.4,13
				c4.5,5.6,8.4,11.8,12,18.1c2.1,3.7,3.8,7.5,6,11.1c2.5,4.1,5.4,8,8.3,11.8c8.9,11.8,18.8,23.3,30.9,32c5.7,4.1,12.1,7.6,19.1,8.8
				c6.1,1.1,12.4,0.3,17.9-2.6c3.7-2,6.9-5.2,8.6-9.1c1.6-3.7,2.1-7.7,2.2-11.7c0.1-6-0.9-11.7-2.6-17.4
				c-4.3-14.1-11.1-27.4-18.3-40.2c-0.6-1-1.2-2.1-1.8-3.1c-1-1.7-3.6-0.1-2.6,1.5c6,10.1,11.4,20.6,15.8,31.5
				c2.6,6.4,5.1,13.2,6.1,20c0-0.3,0,0.3,0.1,0.4c0,0.3,0.1,0.6,0.1,0.9c0.1,0.7,0.1,1.5,0.2,2.2c0.1,1.7,0.1,3.5,0.1,5.2
				c-0.2,3.8-0.8,7.8-2.7,11.1c-2.1,3.6-5.8,6.1-9.7,7.4c-1.3,0.5-2.7,0.8-4.1,1.1c-0.2,0-0.5,0.1-0.7,0.1c0,0,0.1,0-0.2,0
				c-0.8,0.1-1.6,0.2-2.4,0.2c-6.7,0.2-13.1-2.4-18.8-5.8c-12.8-7.6-23.2-19.3-32.3-31c-3.2-4.1-6.2-8.3-9.1-12.6
				c-2.1-3.2-3.8-6.6-5.6-9.9c-3.3-6-6.8-11.8-10.7-17.4c-4.2-5.8-8.9-11.6-14.9-15.6c-14.6-10-32.1-0.1-44.8,8.3
				c-14,9.2-24.5,22.6-31.6,37.6c-4.9,10.4-8.2,21.4-11.6,32.4c-2.5,8-4.8,16-7.1,24.1c-2.1,7.4-3.8,14.8-7.6,21.6
				c-2.2,3.9-4.8,7.4-7.7,10.7C933,700,935.1,702.1,936.4,700.7L936.4,700.7z"/>
		</g>
	</g>
	<g opacity="0.67">
		<g>
			<path fill="#C9A481" d="M1151.7,590.9c2.5,3,4.9,6.5,6.9,10.2c3.6,6.5,6.3,13.6,7.3,21.1c1,7.1,0.2,14.2-1.7,21
				c-1.9,6.6-5.1,12.8-10,17.6c-10.2,9.9-25.7,10.8-38.6,6.2c-8.3-2.9-14.5-9.5-20.3-16.1c-11.7-13.6-22.3-28-33.6-42
				c-4-5-8.1-10-12.4-14.8c-2.4-2.6-4.8-5.3-7.6-7.5c-6.8-5.4-16.2-5.5-24.3-3.6c-8.7,2-16.8,6.6-23.8,12c-6.4,5-12.3,11.1-16.6,18
				c-7,11.3-8.1,24.9-11.6,37.5c-4.9,18.2-13.1,35.4-23.6,51c-1.8,2.7-3.7,5.4-5.7,8c-1.2,1.5,1.4,3,2.6,1.5
				c10.5-14.1,19.1-29.6,25.2-46.1c3-8.1,5.3-16.4,7.1-24.9c1.3-6.1,2.5-12.2,4.8-18.1c2.6-6.6,6.8-12.4,11.7-17.5
				c6.2-6.5,13.6-12,21.8-15.7c7.5-3.4,16.1-5.2,24.2-3.2c0.4,0.1,0.9,0.2,1.3,0.4c0.2,0.1,0.4,0.1,0.7,0.2c0.2,0.1,0.7,0.3,0.5,0.2
				c-0.2-0.1,0.4,0.2,0.5,0.2c0.2,0.1,0.4,0.2,0.7,0.3c0.5,0.3,1,0.6,1.4,0.9c0.2,0.2,0.5,0.3,0.7,0.5c0.1,0.1,0.2,0.2,0.3,0.3
				c0.2,0.2,0,0,0,0c0.1,0.1,0.2,0.1,0.3,0.2c0.5,0.4,1.1,0.9,1.6,1.4c1.3,1.2,2.6,2.5,3.8,3.8c4,4.2,7.6,8.7,11.3,13.2
				c11.6,14.2,22.5,28.8,34.2,42.9c6,7.2,12.5,14.9,21.3,18.7c11.5,5,25.7,5.5,36.8-0.6c12.8-6.9,19-21.4,20.2-35.3
				c1.3-14.4-4.1-28.9-12.5-40.5c-0.9-1.2-1.8-2.5-2.8-3.6C1152.6,587.3,1150.5,589.4,1151.7,590.9L1151.7,590.9z"/>
		</g>
	</g>
	<g opacity="0.67">
		<g>
			<path fill="#C9A481" d="M1175,610.4c4,10.5,5,22.5,1.9,33.3c-2.1,7.4-6.3,14.1-11.9,19.4c-4.8,4.4-10.4,7.7-16.3,10.5
				c-9.7,4.6-20,8.8-30.8,8c-6.1-0.4-12.4-1.5-17.6-4.8c-4.1-2.5-7.4-6.2-10.3-10c-3.5-4.6-6.5-9.5-9.5-14.4
				c-3.6-5.8-7.2-11.6-11.1-17.1c-4.5-6.3-9.4-12.4-14.9-17.9c-5.6-5.6-11.6-10.9-18.4-15c-7.3-4.5-15.9-7.5-24.5-5
				c-7,2-12.8,7.2-17.6,12.5c-4.6,5.1-8.3,10.9-11.2,17.1c-6,12.7-9.2,26.4-14.1,39.5c-5.8,15.4-14.2,29.7-25.6,41.7
				c-1.9,2-3.8,3.9-5.8,5.7c-1.4,1.3,0.7,3.4,2.1,2.1c11.3-10.4,20.5-23,27.1-36.9c6.4-13.4,10-27.7,15.1-41.5
				c4.8-12.9,11.9-25.7,23.4-33.7c4.3-3,9-4.6,13.9-4.4c4,0.1,8,1.5,11.7,3.3c6.6,3.3,12.5,8,17.8,13c5.9,5.5,11.3,11.6,16.2,18.1
				c7.8,10.4,13.8,21.9,21.4,32.5c2.9,4.1,6.2,8.1,10.2,11.2c4.7,3.7,10.3,5.5,16.2,6.4c4.2,0.6,8.4,0.9,12.7,0.4
				c6.9-0.8,13.3-3.1,19.7-5.8c5.7-2.5,11.4-5.2,16.6-8.8c5.8-4,10.7-9.2,14.2-15.3c7.1-12.4,7.7-27.4,3.8-40.9
				c-0.4-1.4-0.9-2.8-1.4-4.1C1177.2,607.8,1174.3,608.6,1175,610.4L1175,610.4z"/>
		</g>
	</g>
</g>
<g id="mustache-highlight">
	<g id="path4237_3_">
		<path fill="#FDB3FF" d="M1127.7,566.9c3.8,8,7.6,16,11.2,24.1c4.4,10.2,9.2,20.4,11.6,31.4c0.9,4.6,1.1,9.7-1.4,13.9
			c-3.8,6.8-11.2,10.1-18.7,7.9c-9.2-2.6-15.2-10.2-20.9-17.3c-9.2-11.4-17.9-23.4-26.3-35.4c-1-1.4-3.8-6.4-4.8-8
			c-8.5-13.7-17.4-32.1-34.1-36.7c-12.2-3-25.6,0.5-35.9,7.6c-8.1,5.5-14.6,12.9-21.4,20c-20,22.1-33.1,48.9-42.3,77.1
			c-0.8,2.2-2.5,7.3-3.3,9.4c-1.6,5.1-2.5,10.4-3.5,15.8c-0.7,4.3-1.4,8.7-2,13c-0.3,2.6-4.1,2.9-4.9,0.4
			c-3.5-11.1-8.7-21.6-15.6-31c-26.3-36-81.8-55.6-125-44.7c-41.5,10-69,46.3-75.7,87.4c-2,11.6-4.2,23.3-4.4,35.1
			c0,5.7,0.1,11.7,1.8,17.2c6.4,15.8,15.3,32.8,22.6,48.3c0,0,3.9,8,3.9,8c1.8,4.3,4.3,8.1,4.8,13c-0.9,6.4-9.6,2.1-13.1,0.5
			c-5.4-2.7-10.4-5.9-15.4-9.2c-9.9-6.7-19.5-13.8-28.4-21.7c0,0-53.1-47.7-53.1-47.7c16.1,13.9,38.1,33,53.8,46.8
			c9,7.7,18.7,14.6,28.6,21.1c5,3.2,10,6.3,15.3,8.9c2.5,1.2,5.4,2.4,8,2.5c0.6,0,1.2-0.1,1.6-0.3c0.4-0.2,0.5-0.5,0.5-1
			c0-1.1-0.5-2.5-1-3.9c-1.8-4.6-5.4-11.4-7.6-16c-4.7-9.5-11.3-22.6-15.8-32c-2.8-6.2-6.1-12.1-8.1-18.7
			c-1.1-5.2-1.4-10.5-1.4-15.9c0.1-12,2.2-23.8,4.1-35.6c3-17.8,9.3-35.2,19.6-50.2c24.5-36.2,70.5-51.4,112.4-40.9
			c42.5,9,79.3,35.9,92.5,78.4c0,0-4.9,0.4-4.9,0.4c0.6-4.4,1.3-8.8,2-13.2c1-5.5,2-11.1,3.7-16.6c0.7-2,2.5-7.3,3.3-9.4
			c9.1-27.5,22-54.3,41.3-76.2c0,0,2.2-2.6,2.2-2.6c7-7.3,13.7-15,22.2-20.7c11.4-7.8,26.2-11.6,39.8-8.1c18.3,5.3,27.3,24,36.4,39
			c0.7,1.1,3.5,6.1,4.1,7.1c0,0,0.2,0.3,0.2,0.3l0.2,0.3l0.5,0.7c10.1,14.4,20.2,28.9,31.7,42.2c5.7,6.5,15.7,13,23.9,7.1
			c7.7-5.8,6.1-14.3,3.7-22.7c-5.3-16.8-13-32.8-20.1-48.9C1126.2,567.6,1127.7,566.9,1127.7,566.9L1127.7,566.9z"/>
	</g>
</g>
<g id="Layer_34">
</g>
<g id="Layer_36" display="none">
	
		<linearGradient id="path4235_00000060027402539606643420000014918989513148177562_" gradientUnits="userSpaceOnUse" x1="-254.069" y1="-99.261" x2="104.7466" y2="-561.8521" gradientTransform="matrix(8.192422e-02 0 0 -7.764193e-02 620.8855 579.0731)">
		<stop  offset="0" style="stop-color:#8381C5"/>
		<stop  offset="0.5664" style="stop-color:#7E55B3;stop-opacity:0.9961"/>
		<stop  offset="1" style="stop-color:#A52ECB;stop-opacity:0.9922"/>
	</linearGradient>
	
		<linearGradient id="path4235_00000092447655449988116440000004328576413995564932_" gradientUnits="userSpaceOnUse" x1="359.2187" y1="-541.3857" x2="85.3546" y2="-210.7974" gradientTransform="matrix(9.251715e-02 0 0 -9.251715e-02 591.2108 566.2734)">
		<stop  offset="0" style="stop-color:#411F5D"/>
		<stop  offset="1" style="stop-color:#5B2A85"/>
	</linearGradient>
	
		<path id="path4235" display="inline" fill="url(#path4235_00000060027402539606643420000014918989513148177562_)" stroke="url(#path4235_00000092447655449988116440000004328576413995564932_)" stroke-width="1.2505" stroke-miterlimit="10" d="
		M632.7,600c0,12.2-9.8,22.1-21.9,22.1c-12.1,0-21.9-9.9-21.9-22.1s9.8-22.1,21.9-22.1C623,577.9,632.7,587.8,632.7,600z"/>
</g>
<g id="guides">
</g>
</svg>
